League Mono-SemiBold.ufo
<glyph name="exclam" format="1">
  <advance width="600"/>
  <unicode hex="0021"/>
  <outline>
    <contour>
      <point x="339" y="-11"/>
      <point x="373" y="23"/>
      <point x="373" y="66" type="curve" smooth="yes"/>
      <point x="373" y="108"/>
      <point x="339" y="142"/>
      <point x="296" y="142" type="curve" smooth="yes"/>
      <point x="253" y="142"/>
      <point x="219" y="108"/>
      <point x="219" y="66" type="curve" smooth="yes"/>
      <point x="219" y="23"/>
      <point x="253" y="-11"/>
      <point x="296" y="-11" type="curve" smooth="yes"/>
    </contour>
    <contour>
      <point x="346" y="214" type="line"/>
      <point x="360" y="700" type="line"/>
      <point x="231" y="700" type="line"/>
      <point x="245" y="214" type="line"/>
    </contour>
  </outline>
</glyph>
<glyph name="numbersign" format="1">
  <advance width="600"/>
  <unicode hex="0023"/>
  <outline>
    <contour>
      <point x="168" y="700" type="line"/>
      <point x="87" y="0" type="line"/>
      <point x="203" y="0" type="line"/>
      <point x="284" y="700" type="line"/>
    </contour>
    <contour>
      <point x="384" y="700" type="line"/>
      <point x="303" y="0" type="line"/>
      <point x="419" y="0" type="line"/>
      <point x="500" y="700" type="line"/>
    </contour>
    <contour>
      <point x="13" y="172" type="line"/>
      <point x="528" y="172" type="line"/>
      <point x="540" y="272" type="line"/>
      <point x="25" y="272" type="line"/>
    </contour>
    <contour>
      <point x="46" y="417" type="line"/>
      <point x="561" y="417" type="line"/>
      <point x="573" y="517" type="line"/>
      <point x="58" y="517" type="line"/>
    </contour>
  </outline>
</glyph>
<glyph name="dollar" format="1">
  <advance width="600"/>
  <unicode hex="0024"/>
  <outline>
    <contour>
      <point x="255" y="-130" type="line"/>
      <point x="348" y="-130" type="line"/>
      <point x="348" y="800" type="line"/>
      <point x="255" y="800" type="line"/>
    </contour>
    <contour>
      <point x="240" y="440"/>
      <point x="171" y="466"/>
      <point x="171" y="529" type="curve" smooth="yes"/>
      <point x="171" y="596"/>
      <point x="247" y="605"/>
      <point x="304" y="605" type="curve" smooth="yes"/>
      <point x="368" y="605"/>
      <point x="425" y="580"/>
      <point x="448" y="527" type="curve"/>
      <point x="548" y="581" type="line"/>
      <point x="503" y="671"/>
      <point x="407" y="706"/>
      <point x="314" y="706" type="curve" smooth="yes"/>
      <point x="206" y="706"/>
      <point x="60" y="671"/>
      <point x="60" y="530" type="curve" smooth="yes"/>
      <point x="60" y="379"/>
      <point x="223" y="329"/>
      <point x="293" y="305" type="curve" smooth="yes"/>
      <point x="359" y="282"/>
      <point x="443" y="266"/>
      <point x="443" y="187" type="curve" smooth="yes"/>
      <point x="443" y="105"/>
      <point x="373" y="90"/>
      <point x="293" y="90" type="curve" smooth="yes"/>
      <point x="209" y="90"/>
      <point x="157" y="118"/>
      <point x="134" y="168" type="curve"/>
      <point x="34" y="114" type="line"/>
      <point x="79" y="24"/>
      <point x="180" y="-11"/>
      <point x="293" y="-11" type="curve" smooth="yes"/>
      <point x="414" y="-11"/>
      <point x="558" y="34"/>
      <point x="558" y="187" type="curve" smooth="yes"/>
      <point x="558" y="339"/>
      <point x="377" y="391"/>
      <point x="293" y="421" type="curve" smooth="yes"/>
    </contour>
  </outline>
</glyph>
<glyph name="percent" format="1">
  <advance width="600"/>
  <unicode hex="0025"/>
  <outline>
    <contour>
      <point x="438" y="700" type="line"/>
      <point x="45" y="0" type="line"/>
      <point x="168" y="0" type="line"/>
      <point x="561" y="700" type="line"/>
    </contour>
    <contour>
      <point x="226" y="425"/>
      <point x="283" y="460"/>
      <point x="283" y="557" type="curve" smooth="yes"/>
      <point x="283" y="653"/>
      <point x="226" y="688"/>
      <point x="161" y="688" type="curve" smooth="yes"/>
      <point x="95" y="688"/>
      <point x="38" y="653"/>
      <point x="38" y="557" type="curve" smooth="yes"/>
      <point x="38" y="460"/>
      <point x="95" y="425"/>
      <point x="161" y="425" type="curve" smooth="yes"/>
    </contour>
    <contour>
      <point x="141" y="499"/>
      <point x="123" y="513"/>
      <point x="123" y="557" type="curve" smooth="yes"/>
      <point x="123" y="600"/>
      <point x="141" y="614"/>
      <point x="161" y="614" type="curve" smooth="yes"/>
      <point x="180" y="614"/>
      <point x="198" y="600"/>
      <point x="198" y="557" type="curve" smooth="yes"/>
      <point x="198" y="513"/>
      <point x="180" y="499"/>
      <point x="161" y="499" type="curve" smooth="yes"/>
    </contour>
    <contour>
      <point x="517" y="5"/>
      <point x="574" y="40"/>
      <point x="574" y="137" type="curve" smooth="yes"/>
      <point x="574" y="233"/>
      <point x="517" y="268"/>
      <point x="451" y="268" type="curve" smooth="yes"/>
      <point x="386" y="268"/>
      <point x="329" y="233"/>
      <point x="329" y="137" type="curve" smooth="yes"/>
      <point x="329" y="40"/>
      <point x="386" y="5"/>
      <point x="451" y="5" type="curve" smooth="yes"/>
    </contour>
    <contour>
      <point x="432" y="79"/>
      <point x="414" y="93"/>
      <point x="414" y="137" type="curve" smooth="yes"/>
      <point x="414" y="180"/>
      <point x="432" y="194"/>
      <point x="451" y="194" type="curve" smooth="yes"/>
      <point x="471" y="194"/>
      <point x="489" y="180"/>
      <point x="489" y="137" type="curve" smooth="yes"/>
      <point x="489" y="93"/>
      <point x="471" y="79"/>
      <point x="451" y="79" type="curve" smooth="yes"/>
    </contour>
  </outline>
</glyph>
<glyph name="ampersand" format="1">
  <advance width="600"/>
  <unicode hex="0026"/>
  <outline>
    <contour>
      <point x="340" y="-8"/>
      <point x="404" y="19"/>
      <point x="427" y="36" type="curve"/>
      <point x="447" y="0" type="line"/>
      <point x="555" y="0" type="line"/>
      <point x="497" y="93" type="line"/>
      <point x="529" y="132"/>
      <point x="553" y="178"/>
      <point x="553" y="290" type="curve" smooth="yes"/>
      <point x="553" y="293" type="line"/>
      <point x="450" y="293" type="line"/>
      <point x="450" y="290" type="line" smooth="yes"/>
      <point x="450" y="242"/>
      <point x="447" y="205"/>
      <point x="437" y="189" type="curve"/>
      <point x="318" y="374" type="line"/>
      <point x="380" y="425"/>
      <point x="428" y="482"/>
      <point x="428" y="569" type="curve" smooth="yes"/>
      <point x="428" y="656"/>
      <point x="367" y="706"/>
      <point x="274" y="706" type="curve" smooth="yes"/>
      <point x="181" y="706"/>
      <point x="108" y="651"/>
      <point x="111" y="565" type="curve" smooth="yes"/>
      <point x="114" y="500"/>
      <point x="141" y="465"/>
      <point x="185" y="401" type="curve"/>
      <point x="104" y="346"/>
      <point x="50" y="266"/>
      <point x="50" y="185" type="curve" smooth="yes"/>
      <point x="50" y="68"/>
      <point x="134" y="-8"/>
      <point x="274" y="-8" type="curve" smooth="yes"/>
    </contour>
    <contour>
      <point x="206" y="93"/>
      <point x="161" y="133"/>
      <point x="161" y="187" type="curve" smooth="yes"/>
      <point x="161" y="240"/>
      <point x="192" y="280"/>
      <point x="242" y="317" type="curve"/>
      <point x="371" y="118" type="line"/>
      <point x="362" y="111"/>
      <point x="330" y="93"/>
      <point x="269" y="93" type="curve" smooth="yes"/>
    </contour>
    <contour>
      <point x="237" y="493"/>
      <point x="213" y="524"/>
      <point x="213" y="564" type="curve" smooth="yes"/>
      <point x="213" y="598"/>
      <point x="238" y="618"/>
      <point x="274" y="618" type="curve" smooth="yes"/>
      <point x="310" y="618"/>
      <point x="329" y="598"/>
      <point x="329" y="562" type="curve" smooth="yes"/>
      <point x="329" y="525"/>
      <point x="305" y="490"/>
      <point x="266" y="454" type="curve"/>
    </contour>
  </outline>
</glyph>
<glyph name="quotesingle" format="1">
  <advance width="600"/>
  <unicode hex="0027"/>
  <outline>
    <contour>
      <point x="261" y="514" type="line"/>
      <point x="338" y="514" type="line"/>
      <point x="360" y="757" type="line"/>
      <point x="239" y="757" type="line"/>
    </contour>
  </outline>
</glyph>
<glyph name="parenleft" format="1">
  <advance width="600"/>
  <unicode hex="0028"/>
  <outline>
    <contour>
      <point x="484" y="-178" type="line"/>
      <point x="478" y="-169"/>
      <point x="331" y="15"/>
      <point x="331" y="294" type="curve" smooth="yes"/>
      <point x="331" y="572"/>
      <point x="478" y="757"/>
      <point x="484" y="765" type="curve"/>
      <point x="387" y="814" type="line"/>
      <point x="381" y="805"/>
      <point x="212" y="623"/>
      <point x="212" y="294" type="curve" smooth="yes"/>
      <point x="212" y="-36"/>
      <point x="381" y="-218"/>
      <point x="387" y="-227" type="curve"/>
    </contour>
  </outline>
</glyph>
<glyph name="asterisk" format="1">
  <advance width="600"/>
  <unicode hex="002A"/>
  <outline>
    <contour>
      <point x="423" y="556" type="line"/>
      <point x="336" y="665" type="line"/>
      <point x="281" y="622" type="line"/>
      <point x="355" y="508" type="line"/>
    </contour>
    <contour>
      <point x="317" y="622" type="line"/>
      <point x="263" y="665" type="line"/>
      <point x="175" y="556" type="line"/>
      <point x="243" y="508" type="line"/>
    </contour>
    <contour>
      <point x="299" y="692" type="line"/>
      <point x="168" y="739" type="line"/>
      <point x="142" y="659" type="line"/>
      <point x="281" y="622" type="line"/>
    </contour>
    <contour>
      <point x="322" y="615"/>
      <point x="341" y="633"/>
      <point x="341" y="656" type="curve" smooth="yes"/>
      <point x="341" y="677"/>
      <point x="322" y="697"/>
      <point x="299" y="697" type="curve" smooth="yes"/>
      <point x="275" y="697"/>
      <point x="256" y="677"/>
      <point x="256" y="656" type="curve" smooth="yes"/>
      <point x="256" y="633"/>
      <point x="275" y="615"/>
      <point x="299" y="615" type="curve" smooth="yes"/>
    </contour>
    <contour>
      <point x="336" y="665" type="line"/>
      <point x="343" y="800" type="line"/>
      <point x="256" y="800" type="line"/>
      <point x="263" y="665" type="line"/>
    </contour>
    <contour>
      <point x="456" y="659" type="line"/>
      <point x="430" y="739" type="line"/>
      <point x="299" y="692" type="line"/>
      <point x="317" y="622" type="line"/>
    </contour>
  </outline>
</glyph>
<glyph name="plus" format="1">
  <advance width="600"/>
  <unicode hex="002B"/>
  <outline>
    <contour>
      <point x="105" y="254" type="line"/>
      <point x="500" y="254" type="line"/>
      <point x="500" y="354" type="line"/>
      <point x="105" y="354" type="line"/>
    </contour>
    <contour>
      <point x="353" y="106" type="line"/>
      <point x="353" y="501" type="line"/>
      <point x="253" y="501" type="line"/>
      <point x="253" y="106" type="line"/>
    </contour>
  </outline>
</glyph>
<glyph name="comma" format="1">
  <advance width="600"/>
  <unicode hex="002C"/>
  <outline>
    <contour>
      <point x="305" y="-14"/>
      <point x="343" y="25"/>
      <point x="343" y="75" type="curve" smooth="yes"/>
      <point x="343" y="122"/>
      <point x="305" y="161"/>
      <point x="256" y="161" type="curve" smooth="yes"/>
      <point x="207" y="161"/>
      <point x="169" y="122"/>
      <point x="169" y="75" type="curve" smooth="yes"/>
      <point x="169" y="25"/>
      <point x="207" y="-14"/>
      <point x="256" y="-14" type="curve" smooth="yes"/>
    </contour>
    <contour>
      <point x="190" y="-114" type="line"/>
      <point x="261" y="-141" type="line"/>
      <point x="335" y="35" type="line"/>
      <point x="234" y="25" type="line"/>
    </contour>
  </outline>
</glyph>
<glyph name="hyphen" format="1">
  <advance width="600"/>
  <unicode hex="002D"/>
  <outline>
    <contour>
      <point x="142" y="250" type="line"/>
      <point x="452" y="250" type="line"/>
      <point x="452" y="358" type="line"/>
      <point x="142" y="358" type="line"/>
    </contour>
  </outline>
</glyph>
<glyph name="period" format="1">
  <advance width="600"/>
  <unicode hex="002E"/>
  <outline>
    <contour>
      <point x="349" y="-11"/>
      <point x="390" y="31"/>
      <point x="390" y="83" type="curve" smooth="yes"/>
      <point x="390" y="136"/>
      <point x="349" y="178"/>
      <point x="296" y="178" type="curve" smooth="yes"/>
      <point x="243" y="178"/>
      <point x="202" y="136"/>
      <point x="202" y="83" type="curve" smooth="yes"/>
      <point x="202" y="31"/>
      <point x="243" y="-11"/>
      <point x="296" y="-11" type="curve" smooth="yes"/>
    </contour>
  </outline>
</glyph>
<glyph name="slash" format="1">
  <advance width="600"/>
  <unicode hex="002F"/>
  <outline>
    <contour>
      <point x="373" y="800" type="line"/>
      <point x="124" y="-142" type="line"/>
      <point x="230" y="-142" type="line"/>
      <point x="479" y="800" type="line"/>
    </contour>
  </outline>
</glyph>
<glyph name="zero" format="1">
  <advance width="600"/>
  <unicode hex="0030"/>
  <outline>
    <contour>
      <point x="429" y="-11"/>
      <point x="544" y="60"/>
      <point x="544" y="348" type="curve" smooth="yes"/>
      <point x="544" y="635"/>
      <point x="429" y="706"/>
      <point x="302" y="706" type="curve" smooth="yes"/>
      <point x="174" y="706"/>
      <point x="59" y="635"/>
      <point x="59" y="348" type="curve" smooth="yes"/>
      <point x="59" y="60"/>
      <point x="174" y="-11"/>
      <point x="302" y="-11" type="curve" smooth="yes"/>
    </contour>
    <contour>
      <point x="239" y="90"/>
      <point x="184" y="133"/>
      <point x="184" y="348" type="curve" smooth="yes"/>
      <point x="184" y="562"/>
      <point x="239" y="605"/>
      <point x="302" y="605" type="curve" smooth="yes"/>
      <point x="364" y="605"/>
      <point x="419" y="562"/>
      <point x="419" y="348" type="curve" smooth="yes"/>
      <point x="419" y="133"/>
      <point x="364" y="90"/>
      <point x="302" y="90" type="curve" smooth="yes"/>
    </contour>
    <contour>
      <point x="333" y="261"/>
      <point x="361" y="274"/>
      <point x="361" y="348" type="curve" smooth="yes"/>
      <point x="361" y="421"/>
      <point x="333" y="434"/>
      <point x="302" y="434" type="curve" smooth="yes"/>
      <point x="270" y="434"/>
      <point x="242" y="421"/>
      <point x="242" y="348" type="curve" smooth="yes"/>
      <point x="242" y="274"/>
      <point x="270" y="261"/>
      <point x="302" y="261" type="curve" smooth="yes"/>
    </contour>
  </outline>
</glyph>
<glyph name="one" format="1">
  <advance width="600"/>
  <unicode hex="0031"/>
  <outline>
    <contour>
      <point x="140" y="495" type="line"/>
      <point x="256" y="566" type="line"/>
      <point x="275" y="700" type="line"/>
      <point x="90" y="589" type="line"/>
    </contour>
    <contour>
      <point x="375" y="56" type="line"/>
      <point x="375" y="700" type="line"/>
      <point x="275" y="700" type="line"/>
      <point x="256" y="566" type="line"/>
      <point x="256" y="31" type="line"/>
    </contour>
    <contour>
      <point x="122" y="0" type="line"/>
      <point x="500" y="0" type="line"/>
      <point x="500" y="100" type="line"/>
      <point x="122" y="100" type="line"/>
    </contour>
  </outline>
</glyph>
<glyph name="two" format="1">
  <advance width="600"/>
  <unicode hex="0032"/>
  <outline>
    <contour>
      <point x="258" y="100" type="line"/>
      <point x="274" y="111"/>
      <point x="330" y="160"/>
      <point x="379" y="217" type="curve" smooth="yes"/>
      <point x="460" y="311"/>
      <point x="523" y="404"/>
      <point x="523" y="505" type="curve" smooth="yes"/>
      <point x="523" y="620"/>
      <point x="444" y="706"/>
      <point x="305" y="706" type="curve" smooth="yes"/>
      <point x="203" y="706"/>
      <point x="116" y="660"/>
      <point x="73" y="576" type="curve"/>
      <point x="178" y="522" type="line"/>
      <point x="199" y="567"/>
      <point x="242" y="605"/>
      <point x="301" y="605" type="curve" smooth="yes"/>
      <point x="361" y="605"/>
      <point x="399" y="569"/>
      <point x="399" y="503" type="curve" smooth="yes"/>
      <point x="399" y="425"/>
      <point x="339" y="341"/>
      <point x="271" y="266" type="curve" smooth="yes"/>
      <point x="218" y="206"/>
      <point x="142" y="146"/>
      <point x="79" y="100" type="curve"/>
    </contour>
    <contour>
      <point x="520" y="0" type="line"/>
      <point x="520" y="100" type="line"/>
      <point x="79" y="100" type="line"/>
      <point x="79" y="0" type="line"/>
    </contour>
  </outline>
</glyph>
<glyph name="three" format="1">
  <advance width="600"/>
  <unicode hex="0033"/>
  <outline>
    <contour>
      <point x="448" y="-11"/>
      <point x="542" y="67"/>
      <point x="542" y="196" type="curve" smooth="yes"/>
      <point x="542" y="290"/>
      <point x="485" y="360"/>
      <point x="360" y="371" type="curve" smooth="yes"/>
      <point x="356" y="371"/>
      <point x="276" y="304"/>
      <point x="282" y="304" type="curve" smooth="yes"/>
      <point x="392" y="304"/>
      <point x="421" y="255"/>
      <point x="421" y="198" type="curve" smooth="yes"/>
      <point x="421" y="133"/>
      <point x="383" y="90"/>
      <point x="307" y="90" type="curve" smooth="yes"/>
      <point x="239" y="90"/>
      <point x="186" y="123"/>
      <point x="164" y="173" type="curve"/>
      <point x="62" y="119" type="line"/>
      <point x="100" y="43"/>
      <point x="190" y="-11"/>
      <point x="308" y="-11" type="curve" smooth="yes"/>
    </contour>
    <contour>
      <point x="401" y="304" type="line"/>
      <point x="401" y="404" type="line"/>
      <point x="250" y="404" type="line"/>
      <point x="250" y="304" type="line"/>
    </contour>
    <contour>
      <point x="478" y="365"/>
      <point x="528" y="433"/>
      <point x="528" y="520" type="curve" smooth="yes"/>
      <point x="528" y="639"/>
      <point x="434" y="706"/>
      <point x="303" y="706" type="curve" smooth="yes"/>
      <point x="194" y="706"/>
      <point x="112" y="650"/>
      <point x="75" y="576" type="curve"/>
      <point x="177" y="522" type="line"/>
      <point x="198" y="570"/>
      <point x="244" y="605"/>
      <point x="303" y="605" type="curve" smooth="yes"/>
      <point x="370" y="605"/>
      <point x="407" y="579"/>
      <point x="407" y="514" type="curve" smooth="yes"/>
      <point x="407" y="461"/>
      <point x="392" y="404"/>
      <point x="282" y="404" type="curve" smooth="yes"/>
      <point x="276" y="404"/>
      <point x="350" y="336"/>
      <point x="354" y="337" type="curve" smooth="yes"/>
    </contour>
  </outline>
</glyph>
<glyph name="four" format="1">
  <advance width="600"/>
  <unicode hex="0034"/>
  <outline>
    <contour>
      <point x="184" y="243" type="line"/>
      <point x="318" y="641" type="line"/>
      <point x="226" y="700" type="line"/>
      <point x="68" y="243" type="line"/>
    </contour>
    <contour>
      <point x="384" y="600" type="line"/>
      <point x="384" y="700" type="line"/>
      <point x="226" y="700" type="line"/>
      <point x="226" y="600" type="line"/>
    </contour>
    <contour>
      <point x="430" y="0" type="line"/>
      <point x="430" y="700" type="line"/>
      <point x="312" y="700" type="line"/>
      <point x="310" y="0" type="line"/>
    </contour>
    <contour>
      <point x="540" y="143" type="line"/>
      <point x="540" y="243" type="line"/>
      <point x="68" y="243" type="line"/>
      <point x="68" y="143" type="line"/>
    </contour>
  </outline>
</glyph>
<glyph name="five" format="1">
  <advance width="600"/>
  <unicode hex="0035"/>
  <outline>
    <contour>
      <point x="426" y="-11"/>
      <point x="526" y="71"/>
      <point x="526" y="231" type="curve" smooth="yes"/>
      <point x="526" y="388"/>
      <point x="447" y="467"/>
      <point x="310" y="467" type="curve" smooth="yes"/>
      <point x="220" y="467"/>
      <point x="147" y="419"/>
      <point x="119" y="329" type="curve"/>
      <point x="177" y="286" type="line"/>
      <point x="201" y="341"/>
      <point x="256" y="363"/>
      <point x="304" y="363" type="curve" smooth="yes"/>
      <point x="378" y="363"/>
      <point x="406" y="316"/>
      <point x="406" y="233" type="curve" smooth="yes"/>
      <point x="406" y="151"/>
      <point x="368" y="90"/>
      <point x="291" y="90" type="curve" smooth="yes"/>
      <point x="225" y="90"/>
      <point x="183" y="117"/>
      <point x="158" y="165" type="curve"/>
      <point x="54" y="108" type="line"/>
      <point x="103" y="21"/>
      <point x="181" y="-11"/>
      <point x="289" y="-11" type="curve" smooth="yes"/>
    </contour>
    <contour>
      <point x="215" y="673" type="line"/>
      <point x="109" y="700" type="line"/>
      <point x="74" y="330" type="line"/>
      <point x="177" y="286" type="line"/>
    </contour>
    <contour>
      <point x="490" y="600" type="line"/>
      <point x="490" y="700" type="line"/>
      <point x="109" y="700" type="line"/>
      <point x="118" y="600" type="line"/>
    </contour>
  </outline>
</glyph>
<glyph name="six" format="1">
  <advance width="600"/>
  <unicode hex="0036"/>
  <outline>
    <contour>
      <point x="493" y="679" type="line"/>
      <point x="465" y="694"/>
      <point x="416" y="709"/>
      <point x="347" y="706" type="curve" smooth="yes"/>
      <point x="211" y="700"/>
      <point x="61" y="599"/>
      <point x="61" y="328" type="curve" smooth="yes"/>
      <point x="61" y="75"/>
      <point x="149" y="-11"/>
      <point x="305" y="-11" type="curve"/>
      <point x="305" y="90" type="line"/>
      <point x="225" y="90"/>
      <point x="181" y="139"/>
      <point x="181" y="328" type="curve" smooth="yes"/>
      <point x="181" y="526"/>
      <point x="266" y="601"/>
      <point x="347" y="605" type="curve" smooth="yes"/>
      <point x="392" y="608"/>
      <point x="425" y="600"/>
      <point x="444" y="589" type="curve"/>
    </contour>
    <contour>
      <point x="305" y="-11" type="line"/>
      <point x="451" y="-11"/>
      <point x="536" y="81"/>
      <point x="536" y="232" type="curve" smooth="yes"/>
      <point x="536" y="385"/>
      <point x="469" y="469"/>
      <point x="323" y="469" type="curve" smooth="yes"/>
      <point x="232" y="469"/>
      <point x="170" y="423"/>
      <point x="122" y="333" type="curve"/>
      <point x="179" y="283" type="line"/>
      <point x="203" y="332"/>
      <point x="254" y="364"/>
      <point x="318" y="364" type="curve" smooth="yes"/>
      <point x="387" y="364"/>
      <point x="416" y="321"/>
      <point x="416" y="232" type="curve" smooth="yes"/>
      <point x="416" y="145"/>
      <point x="375" y="90"/>
      <point x="305" y="90" type="curve"/>
    </contour>
  </outline>
</glyph>
<glyph name="seven" format="1">
  <advance width="600"/>
  <unicode hex="0037"/>
  <outline>
    <contour>
      <point x="388" y="593" type="line"/>
      <point x="115" y="0" type="line"/>
      <point x="255" y="0" type="line"/>
      <point x="521" y="593" type="line"/>
    </contour>
    <contour>
      <point x="521" y="700" type="line"/>
      <point x="81" y="700" type="line"/>
      <point x="81" y="593" type="line"/>
      <point x="521" y="593" type="line"/>
    </contour>
  </outline>
</glyph>
<glyph name="eight" format="1">
  <advance width="600"/>
  <unicode hex="0038"/>
  <outline>
    <contour>
      <point x="448" y="-11"/>
      <point x="546" y="62"/>
      <point x="546" y="201" type="curve" smooth="yes"/>
      <point x="546" y="352"/>
      <point x="419" y="410"/>
      <point x="303" y="410" type="curve" smooth="yes"/>
      <point x="186" y="410"/>
      <point x="59" y="352"/>
      <point x="59" y="201" type="curve" smooth="yes"/>
      <point x="59" y="62"/>
      <point x="157" y="-11"/>
      <point x="303" y="-11" type="curve" smooth="yes"/>
    </contour>
    <contour>
      <point x="233" y="90"/>
      <point x="183" y="124"/>
      <point x="183" y="205" type="curve" smooth="yes"/>
      <point x="183" y="286"/>
      <point x="243" y="319"/>
      <point x="303" y="319" type="curve" smooth="yes"/>
      <point x="362" y="319"/>
      <point x="422" y="286"/>
      <point x="422" y="205" type="curve" smooth="yes"/>
      <point x="422" y="124"/>
      <point x="372" y="90"/>
      <point x="303" y="90" type="curve" smooth="yes"/>
    </contour>
    <contour>
      <point x="409" y="327"/>
      <point x="516" y="393"/>
      <point x="516" y="516" type="curve" smooth="yes"/>
      <point x="516" y="638"/>
      <point x="428" y="707"/>
      <point x="303" y="707" type="curve" smooth="yes"/>
      <point x="177" y="707"/>
      <point x="89" y="638"/>
      <point x="89" y="516" type="curve" smooth="yes"/>
      <point x="89" y="393"/>
      <point x="196" y="327"/>
      <point x="303" y="327" type="curve" smooth="yes"/>
    </contour>
    <contour>
      <point x="243" y="418"/>
      <point x="209" y="452"/>
      <point x="209" y="513" type="curve" smooth="yes"/>
      <point x="209" y="573"/>
      <point x="243" y="606"/>
      <point x="303" y="606" type="curve" smooth="yes"/>
      <point x="362" y="606"/>
      <point x="396" y="573"/>
      <point x="396" y="513" type="curve" smooth="yes"/>
      <point x="396" y="452"/>
      <point x="362" y="418"/>
      <point x="303" y="418" type="curve" smooth="yes"/>
    </contour>
  </outline>
</glyph>
<glyph name="nine" format="1">
  <advance width="600"/>
  <unicode hex="0039"/>
  <outline>
    <contour>
      <point x="292" y="707" type="line"/>
      <point x="146" y="707"/>
      <point x="61" y="616"/>
      <point x="61" y="465" type="curve" smooth="yes"/>
      <point x="61" y="312"/>
      <point x="134" y="227"/>
      <point x="280" y="227" type="curve" smooth="yes"/>
      <point x="371" y="227"/>
      <point x="434" y="273"/>
      <point x="482" y="363" type="curve"/>
      <point x="422" y="412" type="line"/>
      <point x="392" y="350"/>
      <point x="337" y="328"/>
      <point x="282" y="328" type="curve" smooth="yes"/>
      <point x="217" y="328"/>
      <point x="186" y="376"/>
      <point x="186" y="465" type="curve" smooth="yes"/>
      <point x="186" y="552"/>
      <point x="218" y="606"/>
      <point x="292" y="606" type="curve"/>
    </contour>
    <contour>
      <point x="120" y="0" type="line"/>
      <point x="132" y="0"/>
      <point x="229" y="-3"/>
      <point x="307" y="21" type="curve" smooth="yes"/>
      <point x="428" y="58"/>
      <point x="536" y="132"/>
      <point x="536" y="398" type="curve" smooth="yes"/>
      <point x="536" y="631"/>
      <point x="448" y="707"/>
      <point x="292" y="707" type="curve"/>
      <point x="292" y="606" type="line"/>
      <point x="372" y="606"/>
      <point x="411" y="567"/>
      <point x="411" y="398" type="curve" smooth="yes"/>
      <point x="411" y="209"/>
      <point x="362" y="148"/>
      <point x="297" y="123" type="curve" smooth="yes"/>
      <point x="233" y="99"/>
      <point x="141" y="99"/>
      <point x="120" y="99" type="curve"/>
    </contour>
  </outline>
</glyph>
<glyph name="less" format="1">
  <advance width="600"/>
  <unicode hex="003C"/>
  <outline>
    <contour>
      <point x="203" y="233" type="line"/>
      <point x="500" y="486" type="line"/>
      <point x="448" y="562" type="line"/>
      <point x="109" y="341" type="line"/>
    </contour>
    <contour>
      <point x="109" y="236" type="line"/>
      <point x="186" y="236" type="line"/>
      <point x="186" y="341" type="line"/>
      <point x="109" y="341" type="line"/>
    </contour>
    <contour>
      <point x="448" y="15" type="line"/>
      <point x="500" y="91" type="line"/>
      <point x="203" y="344" type="line"/>
      <point x="109" y="236" type="line"/>
    </contour>
  </outline>
</glyph>
<glyph name="equal" format="1">
  <advance width="600"/>
  <unicode hex="003D"/>
  <outline>
    <contour>
      <point x="101" y="162" type="line"/>
      <point x="496" y="162" type="line"/>
      <point x="496" y="262" type="line"/>
      <point x="101" y="262" type="line"/>
    </contour>
    <contour>
      <point x="101" y="346" type="line"/>
      <point x="496" y="346" type="line"/>
      <point x="496" y="446" type="line"/>
      <point x="101" y="446" type="line"/>
    </contour>
  </outline>
</glyph>
<glyph name="question" format="1">
  <advance width="600"/>
  <unicode hex="003F"/>
  <outline>
    <contour>
      <point x="341" y="214" type="line"/>
      <point x="341" y="243" type="line"/>
      <point x="341" y="340"/>
      <point x="530" y="384"/>
      <point x="532" y="520" type="curve" smooth="yes"/>
      <point x="535" y="643"/>
      <point x="434" y="706"/>
      <point x="303" y="706" type="curve" smooth="yes"/>
      <point x="190" y="706"/>
      <point x="110" y="655"/>
      <point x="73" y="581" type="curve"/>
      <point x="173" y="522" type="line"/>
      <point x="194" y="570"/>
      <point x="244" y="605"/>
      <point x="303" y="605" type="curve" smooth="yes"/>
      <point x="379" y="605"/>
      <point x="408" y="576"/>
      <point x="407" y="516" type="curve" smooth="yes"/>
      <point x="404" y="422"/>
      <point x="229" y="395"/>
      <point x="229" y="232" type="curve"/>
      <point x="229" y="214" type="line"/>
    </contour>
    <contour>
      <point x="329" y="-11"/>
      <point x="363" y="23"/>
      <point x="363" y="66" type="curve" smooth="yes"/>
      <point x="363" y="108"/>
      <point x="329" y="142"/>
      <point x="286" y="142" type="curve" smooth="yes"/>
      <point x="243" y="142"/>
      <point x="209" y="108"/>
      <point x="209" y="66" type="curve" smooth="yes"/>
      <point x="209" y="23"/>
      <point x="243" y="-11"/>
      <point x="286" y="-11" type="curve" smooth="yes"/>
    </contour>
  </outline>
</glyph>
<glyph name="at" format="1">
  <advance width="600"/>
  <unicode hex="0040"/>
  <outline>
    <contour>
      <point x="347" y="-11"/>
      <point x="410" y="10"/>
      <point x="415" y="13" type="curve"/>
      <point x="370" y="94" type="line"/>
      <point x="370" y="94"/>
      <point x="340" y="75"/>
      <point x="263" y="78" type="curve" smooth="yes"/>
      <point x="140" y="83"/>
      <point x="82" y="168"/>
      <point x="98" y="352" type="curve" smooth="yes"/>
      <point x="116" y="550"/>
      <point x="205" y="622"/>
      <point x="338" y="621" type="curve" smooth="yes"/>
      <point x="471" y="620"/>
      <point x="523" y="545"/>
      <point x="505" y="361" type="curve" smooth="yes"/>
      <point x="494" y="252"/>
      <point x="481" y="197"/>
      <point x="444" y="203" type="curve" smooth="yes"/>
      <point x="417" y="207"/>
      <point x="427" y="284"/>
      <point x="433" y="337" type="curve" smooth="yes"/>
      <point x="436" y="373"/>
      <point x="453" y="520"/>
      <point x="453" y="520" type="curve" smooth="yes"/>
      <point x="453" y="520"/>
      <point x="402" y="550"/>
      <point x="336" y="552" type="curve" smooth="yes"/>
      <point x="241" y="555"/>
      <point x="169" y="491"/>
      <point x="156" y="347" type="curve" smooth="yes"/>
      <point x="143" y="201"/>
      <point x="191" y="145"/>
      <point x="268" y="145" type="curve" smooth="yes"/>
      <point x="318" y="145"/>
      <point x="361" y="181"/>
      <point x="370" y="210" type="curve"/>
      <point x="368" y="174"/>
      <point x="387" y="125"/>
      <point x="437" y="116" type="curve" smooth="yes"/>
      <point x="537" y="99"/>
      <point x="578" y="194"/>
      <point x="592" y="351" type="curve" smooth="yes"/>
      <point x="616" y="614"/>
      <point x="501" y="704"/>
      <point x="353" y="706" type="curve" smooth="yes"/>
      <point x="198" y="708"/>
      <point x="21" y="643"/>
      <point x="4" y="348" type="curve" smooth="yes"/>
      <point x="-13" y="50"/>
      <point x="136" y="-6"/>
      <point x="263" y="-9" type="curve" smooth="yes"/>
    </contour>
    <contour>
      <point x="250" y="243"/>
      <point x="238" y="271"/>
      <point x="246" y="345" type="curve" smooth="yes"/>
      <point x="256" y="425"/>
      <point x="276" y="461"/>
      <point x="322" y="459" type="curve" smooth="yes"/>
      <point x="349" y="457"/>
      <point x="360" y="452"/>
      <point x="360" y="452" type="curve"/>
      <point x="360" y="452"/>
      <point x="350" y="356"/>
      <point x="349" y="340" type="curve" smooth="yes"/>
      <point x="340" y="260"/>
      <point x="315" y="241"/>
      <point x="287" y="242" type="curve" smooth="yes"/>
    </contour>
  </outline>
</glyph>
<glyph name="A" format="1">
  <advance width="600"/>
  <unicode hex="0041"/>
  <outline>
    <contour>
      <point x="39" y="0" type="line"/>
      <point x="160" y="0" type="line"/>
      <point x="317" y="700" type="line"/>
      <point x="196" y="700" type="line"/>
    </contour>
    <contour>
      <point x="283" y="700" type="line"/>
      <point x="440" y="0" type="line"/>
      <point x="561" y="0" type="line"/>
      <point x="404" y="700" type="line"/>
    </contour>
    <contour>
      <point x="221" y="618" type="line"/>
      <point x="379" y="618" type="line"/>
      <point x="379" y="700" type="line"/>
      <point x="221" y="700" type="line"/>
    </contour>
    <contour>
      <point x="129" y="211" type="line"/>
      <point x="471" y="211" type="line"/>
      <point x="471" y="310" type="line"/>
      <point x="129" y="310" type="line"/>
    </contour>
  </outline>
</glyph>
<glyph name="B" format="1">
  <advance width="600"/>
  <unicode hex="0042"/>
  <outline>
    <contour>
      <point x="423" y="370"/>
      <point x="516" y="386"/>
      <point x="516" y="529" type="curve" smooth="yes"/>
      <point x="516" y="690"/>
      <point x="397" y="700"/>
      <point x="313" y="700" type="curve" smooth="yes"/>
      <point x="83" y="700" type="line"/>
      <point x="83" y="0" type="line"/>
      <point x="364" y="0" type="line" smooth="yes"/>
      <point x="483" y="0"/>
      <point x="551" y="66"/>
      <point x="551" y="200" type="curve" smooth="yes"/>
      <point x="551" y="356"/>
      <point x="423" y="370"/>
      <point x="423" y="370" type="curve" smooth="yes"/>
    </contour>
    <contour>
      <point x="306" y="600" type="line" smooth="yes"/>
      <point x="368" y="600"/>
      <point x="390" y="584"/>
      <point x="390" y="513" type="curve" smooth="yes"/>
      <point x="390" y="443"/>
      <point x="370" y="411"/>
      <point x="310" y="411" type="curve" smooth="yes"/>
      <point x="203" y="411" type="line"/>
      <point x="203" y="600" type="line"/>
    </contour>
    <contour>
      <point x="203" y="100" type="line"/>
      <point x="203" y="311" type="line"/>
      <point x="334" y="311" type="line" smooth="yes"/>
      <point x="391" y="311"/>
      <point x="430" y="289"/>
      <point x="430" y="205" type="curve" smooth="yes"/>
      <point x="430" y="134"/>
      <point x="415" y="100"/>
      <point x="334" y="100" type="curve" smooth="yes"/>
    </contour>
  </outline>
</glyph>
<glyph name="C" format="1">
  <advance width="600"/>
  <unicode hex="0043"/>
  <outline>
    <contour>
      <point x="444" y="180" type="line"/>
      <point x="421" y="132"/>
      <point x="383" y="90"/>
      <point x="319" y="90" type="curve" smooth="yes"/>
      <point x="235" y="90"/>
      <point x="180" y="138"/>
      <point x="180" y="348" type="curve" smooth="yes"/>
      <point x="180" y="557"/>
      <point x="235" y="605"/>
      <point x="319" y="605" type="curve" smooth="yes"/>
      <point x="373" y="605"/>
      <point x="417" y="575"/>
      <point x="443" y="518" type="curve"/>
      <point x="550" y="576" type="line"/>
      <point x="502" y="666"/>
      <point x="428" y="706"/>
      <point x="319" y="706" type="curve" smooth="yes"/>
      <point x="163" y="706"/>
      <point x="55" y="630"/>
      <point x="55" y="348" type="curve" smooth="yes"/>
      <point x="55" y="65"/>
      <point x="163" y="-11"/>
      <point x="319" y="-11" type="curve" smooth="yes"/>
      <point x="420" y="-11"/>
      <point x="502" y="25"/>
      <point x="554" y="124" type="curve"/>
    </contour>
  </outline>
</glyph>
<glyph name="D" format="1">
  <advance width="600"/>
  <unicode hex="0044"/>
  <outline>
    <contour>
      <point x="568" y="350" type="line"/>
      <point x="568" y="700"/>
      <point x="402" y="700"/>
      <point x="297" y="700" type="curve" smooth="yes"/>
      <point x="96" y="700" type="line"/>
      <point x="96" y="350" type="line"/>
      <point x="216" y="350" type="line"/>
      <point x="216" y="402" type="line"/>
      <point x="216" y="600" type="line"/>
      <point x="296" y="600" type="line"/>
      <point x="408" y="600"/>
      <point x="444" y="548"/>
      <point x="444" y="350" type="curve"/>
    </contour>
    <contour>
      <point x="444" y="152"/>
      <point x="408" y="100"/>
      <point x="296" y="100" type="curve"/>
      <point x="216" y="100" type="line"/>
      <point x="216" y="298" type="line"/>
      <point x="216" y="350" type="line"/>
      <point x="96" y="350" type="line"/>
      <point x="96" y="0" type="line"/>
      <point x="297" y="0" type="line" smooth="yes"/>
      <point x="402" y="0"/>
      <point x="568" y="0"/>
      <point x="568" y="350" type="curve"/>
      <point x="444" y="350" type="line"/>
    </contour>
  </outline>
</glyph>
<glyph name="E" format="1">
  <advance width="600"/>
  <unicode hex="0045"/>
  <outline>
    <contour>
      <point x="218" y="0" type="line"/>
      <point x="218" y="700" type="line"/>
      <point x="99" y="700" type="line"/>
      <point x="99" y="0" type="line"/>
    </contour>
    <contour>
      <point x="170" y="0" type="line"/>
      <point x="526" y="0" type="line"/>
      <point x="526" y="100" type="line"/>
      <point x="170" y="100" type="line"/>
    </contour>
    <contour>
      <point x="170" y="294" type="line"/>
      <point x="472" y="294" type="line"/>
      <point x="472" y="394" type="line"/>
      <point x="170" y="394" type="line"/>
    </contour>
    <contour>
      <point x="170" y="600" type="line"/>
      <point x="526" y="600" type="line"/>
      <point x="526" y="700" type="line"/>
      <point x="170" y="700" type="line"/>
    </contour>
  </outline>
</glyph>
<glyph name="F" format="1">
  <advance width="600"/>
  <unicode hex="0046"/>
  <outline>
    <contour>
      <point x="242" y="0" type="line"/>
      <point x="242" y="700" type="line"/>
      <point x="122" y="700" type="line"/>
      <point x="122" y="0" type="line"/>
    </contour>
    <contour>
      <point x="193" y="294" type="line"/>
      <point x="505" y="294" type="line"/>
      <point x="505" y="394" type="line"/>
      <point x="193" y="394" type="line"/>
    </contour>
    <contour>
      <point x="193" y="600" type="line"/>
      <point x="545" y="600" type="line"/>
      <point x="545" y="700" type="line"/>
      <point x="193" y="700" type="line"/>
    </contour>
  </outline>
</glyph>
<glyph name="G" format="1">
  <advance width="600"/>
  <unicode hex="0047"/>
  <outline>
    <contour>
      <point x="426" y="145" type="line"/>
      <point x="411" y="115"/>
      <point x="372" y="90"/>
      <point x="308" y="90" type="curve" smooth="yes"/>
      <point x="227" y="90"/>
      <point x="166" y="134"/>
      <point x="166" y="348" type="curve" smooth="yes"/>
      <point x="166" y="562"/>
      <point x="232" y="605"/>
      <point x="311" y="605" type="curve" smooth="yes"/>
      <point x="373" y="605"/>
      <point x="402" y="575"/>
      <point x="431" y="518" type="curve"/>
      <point x="539" y="576" type="line"/>
      <point x="491" y="666"/>
      <point x="425" y="706"/>
      <point x="312" y="706" type="curve" smooth="yes"/>
      <point x="160" y="706"/>
      <point x="41" y="635"/>
      <point x="41" y="348" type="curve" smooth="yes"/>
      <point x="41" y="60"/>
      <point x="157" y="-11"/>
      <point x="308" y="-11" type="curve" smooth="yes"/>
      <point x="429" y="-11"/>
      <point x="509" y="47"/>
      <point x="545" y="108" type="curve"/>
    </contour>
    <contour>
      <point x="305" y="290" type="line"/>
      <point x="545" y="290" type="line"/>
      <point x="545" y="389" type="line"/>
      <point x="305" y="389" type="line"/>
    </contour>
    <contour>
      <point x="545" y="108" type="line"/>
      <point x="545" y="389" type="line"/>
      <point x="425" y="389" type="line"/>
      <point x="425" y="104" type="line"/>
    </contour>
  </outline>
</glyph>
<glyph name="H" format="1">
  <advance width="600"/>
  <unicode hex="0048"/>
  <outline>
    <contour>
      <point x="198" y="0" type="line"/>
      <point x="198" y="700" type="line"/>
      <point x="67" y="700" type="line"/>
      <point x="67" y="0" type="line"/>
    </contour>
    <contour>
      <point x="142" y="310" type="line"/>
      <point x="454" y="310" type="line"/>
      <point x="454" y="418" type="line"/>
      <point x="142" y="418" type="line"/>
    </contour>
    <contour>
      <point x="532" y="0" type="line"/>
      <point x="532" y="700" type="line"/>
      <point x="401" y="700" type="line"/>
      <point x="401" y="0" type="line"/>
    </contour>
  </outline>
</glyph>
<glyph name="I" format="1">
  <advance width="600"/>
  <unicode hex="0049"/>
  <outline>
    <contour>
      <point x="358" y="0" type="line"/>
      <point x="358" y="700" type="line"/>
      <point x="239" y="700" type="line"/>
      <point x="239" y="0" type="line"/>
    </contour>
    <contour>
      <point x="99" y="0" type="line"/>
      <point x="499" y="0" type="line"/>
      <point x="499" y="100" type="line"/>
      <point x="99" y="100" type="line"/>
    </contour>
    <contour>
      <point x="99" y="600" type="line"/>
      <point x="499" y="600" type="line"/>
      <point x="499" y="700" type="line"/>
      <point x="99" y="700" type="line"/>
    </contour>
  </outline>
</glyph>
<glyph name="J" format="1">
  <advance width="600"/>
  <unicode hex="004A"/>
  <outline>
    <contour>
      <point x="355" y="700" type="line"/>
      <point x="355" y="193" type="line"/>
      <point x="475" y="171" type="line"/>
      <point x="475" y="700" type="line"/>
    </contour>
    <contour>
      <point x="77" y="34" type="line"/>
      <point x="110" y="6"/>
      <point x="174" y="-9"/>
      <point x="245" y="-9" type="curve"/>
      <point x="365" y="-9"/>
      <point x="475" y="53"/>
      <point x="475" y="171" type="curve"/>
      <point x="355" y="193" type="line"/>
      <point x="355" y="119"/>
      <point x="308" y="92"/>
      <point x="238" y="92" type="curve"/>
      <point x="201" y="92"/>
      <point x="160" y="106"/>
      <point x="142" y="118" type="curve"/>
    </contour>
    <contour>
      <point x="124" y="600" type="line"/>
      <point x="445" y="600" type="line"/>
      <point x="445" y="700" type="line"/>
      <point x="124" y="700" type="line"/>
    </contour>
  </outline>
</glyph>
<glyph name="K" format="1">
  <advance width="600"/>
  <unicode hex="004B"/>
  <outline>
    <contour>
      <point x="214" y="0" type="line"/>
      <point x="214" y="700" type="line"/>
      <point x="94" y="700" type="line"/>
      <point x="94" y="0" type="line"/>
    </contour>
    <contour>
      <point x="165" y="309" type="line"/>
      <point x="307" y="309" type="line"/>
      <point x="307" y="409" type="line"/>
      <point x="165" y="409" type="line"/>
    </contour>
    <contour>
      <point x="223" y="379" type="line"/>
      <point x="331" y="346" type="line"/>
      <point x="573" y="700" type="line"/>
      <point x="439" y="700" type="line"/>
    </contour>
    <contour>
      <point x="590" y="0" type="line"/>
      <point x="326" y="379" type="line"/>
      <point x="196" y="379" type="line"/>
      <point x="456" y="0" type="line"/>
    </contour>
  </outline>
</glyph>
<glyph name="L" format="1">
  <advance width="600"/>
  <unicode hex="004C"/>
  <outline>
    <contour>
      <point x="247" y="0" type="line"/>
      <point x="247" y="700" type="line"/>
      <point x="127" y="700" type="line"/>
      <point x="127" y="0" type="line"/>
    </contour>
    <contour>
      <point x="198" y="0" type="line"/>
      <point x="555" y="0" type="line"/>
      <point x="555" y="100" type="line"/>
      <point x="198" y="100" type="line"/>
    </contour>
  </outline>
</glyph>
<glyph name="M" format="1">
  <advance width="600"/>
  <unicode hex="004D"/>
  <outline>
    <contour>
      <point x="151" y="0" type="line"/>
      <point x="170" y="700" type="line"/>
      <point x="75" y="700" type="line"/>
      <point x="31" y="0" type="line"/>
    </contour>
    <contour>
      <point x="569" y="0" type="line"/>
      <point x="525" y="700" type="line"/>
      <point x="430" y="700" type="line"/>
      <point x="449" y="0" type="line"/>
    </contour>
    <contour>
      <point x="306" y="344" type="line"/>
      <point x="284" y="71" type="line"/>
      <point x="351" y="71" type="line"/>
      <point x="427" y="458" type="line"/>
      <point x="455" y="700" type="line"/>
      <point x="386" y="700" type="line"/>
    </contour>
    <contour>
      <point x="145" y="700" type="line"/>
      <point x="173" y="459" type="line"/>
      <point x="249" y="71" type="line"/>
      <point x="316" y="71" type="line"/>
      <point x="294" y="344" type="line"/>
      <point x="214" y="700" type="line"/>
    </contour>
  </outline>
</glyph>
<glyph name="N" format="1">
  <advance width="600"/>
  <unicode hex="004E"/>
  <outline>
    <contour>
      <point x="192" y="0" type="line"/>
      <point x="192" y="700" type="line"/>
      <point x="72" y="700" type="line"/>
      <point x="72" y="0" type="line"/>
    </contour>
    <contour>
      <point x="98" y="700" type="line"/>
      <point x="394" y="0" type="line"/>
      <point x="504" y="0" type="line"/>
      <point x="208" y="700" type="line"/>
    </contour>
    <contour>
      <point x="530" y="0" type="line"/>
      <point x="530" y="700" type="line"/>
      <point x="410" y="700" type="line"/>
      <point x="410" y="0" type="line"/>
    </contour>
  </outline>
</glyph>
<glyph name="O" format="1">
  <advance width="600"/>
  <unicode hex="004F"/>
  <outline>
    <contour>
      <point x="447" y="-11"/>
      <point x="555" y="60"/>
      <point x="555" y="348" type="curve" smooth="yes"/>
      <point x="555" y="635"/>
      <point x="447" y="706"/>
      <point x="297" y="706" type="curve" smooth="yes"/>
      <point x="146" y="706"/>
      <point x="38" y="635"/>
      <point x="38" y="348" type="curve" smooth="yes"/>
      <point x="38" y="60"/>
      <point x="146" y="-11"/>
      <point x="297" y="-11" type="curve" smooth="yes"/>
    </contour>
    <contour>
      <point x="217" y="90"/>
      <point x="162" y="142"/>
      <point x="162" y="348" type="curve" smooth="yes"/>
      <point x="162" y="553"/>
      <point x="217" y="605"/>
      <point x="297" y="605" type="curve" smooth="yes"/>
      <point x="376" y="605"/>
      <point x="431" y="553"/>
      <point x="431" y="348" type="curve" smooth="yes"/>
      <point x="431" y="142"/>
      <point x="376" y="90"/>
      <point x="297" y="90" type="curve" smooth="yes"/>
    </contour>
  </outline>
</glyph>
<glyph name="P" format="1">
  <advance width="600"/>
  <unicode hex="0050"/>
  <outline>
    <contour>
      <point x="327" y="600" type="line" smooth="yes"/>
      <point x="392" y="600"/>
      <point x="439" y="591"/>
      <point x="439" y="475" type="curve" smooth="yes"/>
      <point x="439" y="348"/>
      <point x="392" y="335"/>
      <point x="327" y="335" type="curve" smooth="yes"/>
      <point x="226" y="335" type="line"/>
      <point x="226" y="600" type="line"/>
    </contour>
    <contour>
      <point x="416" y="236"/>
      <point x="560" y="254"/>
      <point x="560" y="479" type="curve" smooth="yes"/>
      <point x="560" y="690"/>
      <point x="416" y="700"/>
      <point x="332" y="700" type="curve" smooth="yes"/>
      <point x="107" y="700" type="line"/>
      <point x="107" y="0" type="line"/>
      <point x="226" y="0" type="line"/>
      <point x="226" y="236" type="line"/>
      <point x="332" y="236" type="line" smooth="yes"/>
    </contour>
  </outline>
</glyph>
<glyph name="Q" format="1">
  <advance width="600"/>
  <unicode hex="0051"/>
  <outline>
    <contour>
      <point x="445" y="-11"/>
      <point x="553" y="60"/>
      <point x="553" y="348" type="curve" smooth="yes"/>
      <point x="553" y="635"/>
      <point x="445" y="706"/>
      <point x="295" y="706" type="curve" smooth="yes"/>
      <point x="143" y="706"/>
      <point x="35" y="635"/>
      <point x="35" y="348" type="curve" smooth="yes"/>
      <point x="35" y="60"/>
      <point x="143" y="-11"/>
      <point x="295" y="-11" type="curve" smooth="yes"/>
    </contour>
    <contour>
      <point x="573" y="-13" type="line"/>
      <point x="442" y="118" type="line"/>
      <point x="359" y="35" type="line"/>
      <point x="488" y="-93" type="line"/>
    </contour>
    <contour>
      <point x="215" y="90"/>
      <point x="160" y="142"/>
      <point x="160" y="348" type="curve" smooth="yes"/>
      <point x="160" y="553"/>
      <point x="215" y="605"/>
      <point x="295" y="605" type="curve" smooth="yes"/>
      <point x="373" y="605"/>
      <point x="429" y="553"/>
      <point x="429" y="348" type="curve" smooth="yes"/>
      <point x="429" y="142"/>
      <point x="373" y="90"/>
      <point x="295" y="90" type="curve" smooth="yes"/>
    </contour>
  </outline>
</glyph>
<glyph name="R" format="1">
  <advance width="600"/>
  <unicode hex="0052"/>
  <outline>
    <contour>
      <point x="330" y="600" type="line" smooth="yes"/>
      <point x="393" y="600"/>
      <point x="422" y="574"/>
      <point x="422" y="498" type="curve" smooth="yes"/>
      <point x="422" y="409"/>
      <point x="395" y="385"/>
      <point x="333" y="385" type="curve" smooth="yes"/>
      <point x="207" y="385" type="line"/>
      <point x="207" y="600" type="line"/>
    </contour>
    <contour>
      <point x="420" y="286"/>
      <point x="543" y="311"/>
      <point x="543" y="499" type="curve" smooth="yes"/>
      <point x="543" y="683"/>
      <point x="417" y="700"/>
      <point x="333" y="700" type="curve" smooth="yes"/>
      <point x="88" y="700" type="line"/>
      <point x="88" y="0" type="line"/>
      <point x="207" y="0" type="line"/>
      <point x="207" y="286" type="line"/>
      <point x="336" y="286" type="line" smooth="yes"/>
    </contour>
    <contour>
      <point x="545" y="0" type="line"/>
      <point x="407" y="313" type="line"/>
      <point x="282" y="313" type="line"/>
      <point x="414" y="0" type="line"/>
    </contour>
  </outline>
</glyph>
<glyph name="S" format="1">
  <advance width="600"/>
  <unicode hex="0053"/>
  <outline>
    <contour>
      <point x="245" y="438"/>
      <point x="196" y="469"/>
      <point x="196" y="526" type="curve" smooth="yes"/>
      <point x="196" y="591"/>
      <point x="257" y="605"/>
      <point x="314" y="605" type="curve" smooth="yes"/>
      <point x="374" y="605"/>
      <point x="416" y="575"/>
      <point x="439" y="522" type="curve"/>
      <point x="541" y="576" type="line"/>
      <point x="500" y="667"/>
      <point x="412" y="706"/>
      <point x="314" y="706" type="curve" smooth="yes"/>
      <point x="197" y="706"/>
      <point x="70" y="664"/>
      <point x="70" y="527" type="curve" smooth="yes"/>
      <point x="70" y="379"/>
      <point x="219" y="331"/>
      <point x="289" y="307" type="curve" smooth="yes"/>
      <point x="355" y="284"/>
      <point x="426" y="263"/>
      <point x="426" y="190" type="curve" smooth="yes"/>
      <point x="426" y="112"/>
      <point x="364" y="90"/>
      <point x="293" y="90" type="curve" smooth="yes"/>
      <point x="218" y="90"/>
      <point x="167" y="124"/>
      <point x="144" y="174" type="curve"/>
      <point x="37" y="120" type="line"/>
      <point x="83" y="28"/>
      <point x="176" y="-11"/>
      <point x="293" y="-11" type="curve" smooth="yes"/>
      <point x="423" y="-11"/>
      <point x="551" y="38"/>
      <point x="551" y="191" type="curve" smooth="yes"/>
      <point x="551" y="348"/>
      <point x="382" y="389"/>
      <point x="298" y="419" type="curve" smooth="yes"/>
    </contour>
  </outline>
</glyph>
<glyph name="T" format="1">
  <advance width="600"/>
  <unicode hex="0054"/>
  <outline>
    <contour>
      <point x="358" y="0" type="line"/>
      <point x="358" y="700" type="line"/>
      <point x="239" y="700" type="line"/>
      <point x="239" y="0" type="line"/>
    </contour>
    <contour>
      <point x="59" y="600" type="line"/>
      <point x="539" y="600" type="line"/>
      <point x="539" y="700" type="line"/>
      <point x="59" y="700" type="line"/>
    </contour>
  </outline>
</glyph>
<glyph name="U" format="1">
  <advance width="600"/>
  <unicode hex="0055"/>
  <outline>
    <contour>
      <point x="443" y="-11"/>
      <point x="542" y="41"/>
      <point x="542" y="274" type="curve" smooth="yes"/>
      <point x="542" y="274"/>
      <point x="542" y="700"/>
      <point x="542" y="700" type="curve" smooth="yes"/>
      <point x="422" y="700" type="line" smooth="yes"/>
      <point x="422" y="700"/>
      <point x="422" y="299"/>
      <point x="422" y="299" type="curve" smooth="yes"/>
      <point x="422" y="122"/>
      <point x="375" y="90"/>
      <point x="301" y="90" type="curve" smooth="yes"/>
      <point x="227" y="90"/>
      <point x="179" y="122"/>
      <point x="179" y="299" type="curve" smooth="yes"/>
      <point x="179" y="299"/>
      <point x="179" y="700"/>
      <point x="179" y="700" type="curve" smooth="yes"/>
      <point x="59" y="700" type="line" smooth="yes"/>
      <point x="59" y="700"/>
      <point x="59" y="274"/>
      <point x="59" y="274" type="curve" smooth="yes"/>
      <point x="59" y="41"/>
      <point x="160" y="-11"/>
      <point x="301" y="-11" type="curve" smooth="yes"/>
    </contour>
  </outline>
</glyph>
<glyph name="V" format="1">
  <advance width="600"/>
  <unicode hex="0056"/>
  <outline>
    <contour>
      <point x="321" y="0" type="line"/>
      <point x="164" y="700" type="line"/>
      <point x="39" y="700" type="line"/>
      <point x="196" y="0" type="line"/>
    </contour>
    <contour>
      <point x="568" y="700" type="line"/>
      <point x="443" y="700" type="line"/>
      <point x="286" y="0" type="line"/>
      <point x="411" y="0" type="line"/>
    </contour>
    <contour>
      <point x="385" y="0" type="line"/>
      <point x="385" y="100" type="line"/>
      <point x="222" y="100" type="line"/>
      <point x="222" y="0" type="line"/>
    </contour>
  </outline>
</glyph>
<glyph name="W" format="1">
  <advance width="600"/>
  <unicode hex="0057"/>
  <outline>
    <contour>
      <point x="516" y="0" type="line"/>
      <point x="592" y="700" type="line"/>
      <point x="477" y="700" type="line"/>
      <point x="439" y="255" type="line"/>
      <point x="424" y="0" type="line"/>
    </contour>
    <contour>
      <point x="182" y="0" type="line"/>
      <point x="167" y="255" type="line"/>
      <point x="129" y="700" type="line"/>
      <point x="14" y="700" type="line"/>
      <point x="90" y="0" type="line"/>
    </contour>
    <contour>
      <point x="218" y="0" type="line"/>
      <point x="297" y="380" type="line"/>
      <point x="316" y="629" type="line"/>
      <point x="249" y="629" type="line"/>
      <point x="176" y="246" type="line"/>
      <point x="158" y="0" type="line"/>
    </contour>
    <contour>
      <point x="448" y="0" type="line"/>
      <point x="430" y="246" type="line"/>
      <point x="357" y="629" type="line"/>
      <point x="290" y="629" type="line"/>
      <point x="309" y="380" type="line"/>
      <point x="388" y="0" type="line"/>
    </contour>
  </outline>
</glyph>
<glyph name="X" format="1">
  <advance width="600"/>
  <unicode hex="0058"/>
  <outline>
    <contour>
      <point x="287" y="296" type="line"/>
      <point x="369" y="296" type="line"/>
      <point x="396" y="396" type="line"/>
      <point x="287" y="396" type="line"/>
    </contour>
    <contour>
      <point x="296" y="366" type="line"/>
      <point x="402" y="333" type="line"/>
      <point x="566" y="700" type="line"/>
      <point x="437" y="700" type="line"/>
    </contour>
    <contour>
      <point x="566" y="0" type="line"/>
      <point x="397" y="366" type="line"/>
      <point x="276" y="366" type="line"/>
      <point x="437" y="0" type="line"/>
    </contour>
    <contour>
      <point x="227" y="396" type="line"/>
      <point x="227" y="296" type="line"/>
      <point x="299" y="296" type="line"/>
      <point x="299" y="396" type="line"/>
    </contour>
    <contour>
      <point x="30" y="700" type="line"/>
      <point x="194" y="333" type="line"/>
      <point x="300" y="366" type="line"/>
      <point x="159" y="700" type="line"/>
    </contour>
    <contour>
      <point x="320" y="366" type="line"/>
      <point x="199" y="366" type="line"/>
      <point x="30" y="0" type="line"/>
      <point x="159" y="0" type="line"/>
    </contour>
  </outline>
</glyph>
<glyph name="Y" format="1">
  <advance width="600"/>
  <unicode hex="0059"/>
  <outline>
    <contour>
      <point x="301" y="403" type="line"/>
      <point x="360" y="268" type="line"/>
      <point x="568" y="700" type="line"/>
      <point x="435" y="700" type="line"/>
    </contour>
    <contour>
      <point x="32" y="700" type="line"/>
      <point x="243" y="263" type="line"/>
      <point x="299" y="403" type="line"/>
      <point x="165" y="700" type="line"/>
    </contour>
    <contour>
      <point x="360" y="0" type="line"/>
      <point x="360" y="403" type="line"/>
      <point x="241" y="403" type="line"/>
      <point x="241" y="0" type="line"/>
    </contour>
  </outline>
</glyph>
<glyph name="Z" format="1">
  <advance width="600"/>
  <unicode hex="005A"/>
  <outline>
    <contour>
      <point x="216" y="100" type="line"/>
      <point x="512" y="600" type="line"/>
      <point x="384" y="600" type="line"/>
      <point x="88" y="100" type="line"/>
    </contour>
    <contour>
      <point x="96" y="600" type="line"/>
      <point x="512" y="600" type="line"/>
      <point x="512" y="700" type="line"/>
      <point x="96" y="700" type="line"/>
    </contour>
    <contour>
      <point x="88" y="0" type="line"/>
      <point x="528" y="0" type="line"/>
      <point x="528" y="100" type="line"/>
      <point x="88" y="100" type="line"/>
    </contour>
  </outline>
</glyph>
<glyph name="bracketleft" format="1">
  <advance width="600"/>
  <unicode hex="005B"/>
  <outline>
    <contour>
      <point x="346" y="804" type="line"/>
      <point x="346" y="705" type="line"/>
      <point x="489" y="705" type="line"/>
      <point x="489" y="804" type="line"/>
    </contour>
    <contour>
      <point x="351" y="804" type="line"/>
      <point x="232" y="804" type="line"/>
      <point x="232" y="-204" type="line"/>
      <point x="351" y="-204" type="line"/>
    </contour>
    <contour>
      <point x="346" y="-105" type="line"/>
      <point x="346" y="-204" type="line"/>
      <point x="489" y="-204" type="line"/>
      <point x="489" y="-105" type="line"/>
    </contour>
  </outline>
</glyph>
<glyph name="backslash" format="1">
  <advance width="600"/>
  <unicode hex="005C"/>
  <outline>
    <contour>
      <point x="373" y="-142" type="line"/>
      <point x="479" y="-142" type="line"/>
      <point x="230" y="800" type="line"/>
      <point x="124" y="800" type="line"/>
    </contour>
  </outline>
</glyph>
<glyph name="asciicircum" format="1">
  <advance width="600"/>
  <unicode hex="005E"/>
  <outline>
    <contour>
      <point x="459" y="571" type="line"/>
      <point x="375" y="800" type="line"/>
      <point x="231" y="800" type="line"/>
      <point x="147" y="571" type="line"/>
      <point x="247" y="571" type="line"/>
      <point x="298" y="713" type="line"/>
      <point x="308" y="713" type="line"/>
      <point x="359" y="571" type="line"/>
    </contour>
  </outline>
</glyph>
<glyph name="underscore" format="1">
  <advance width="600"/>
  <unicode hex="005F"/>
  <outline>
    <contour>
      <point x="36" y="-149" type="line"/>
      <point x="564" y="-149" type="line"/>
      <point x="564" y="-49" type="line"/>
      <point x="36" y="-49" type="line"/>
    </contour>
  </outline>
</glyph>
<glyph name="grave" format="1">
  <advance width="600"/>
  <unicode hex="0060"/>
  <outline>
    <contour>
      <point x="321" y="754" type="line"/>
      <point x="168" y="754" type="line"/>
      <point x="315" y="609" type="line"/>
      <point x="427" y="609" type="line"/>
    </contour>
  </outline>
</glyph>
<glyph name="a" format="1">
  <advance width="600"/>
  <unicode hex="0061"/>
  <outline>
    <contour>
      <point x="506" y="366" type="line"/>
      <point x="506" y="462"/>
      <point x="424" y="512"/>
      <point x="298" y="512" type="curve"/>
      <point x="203" y="512"/>
      <point x="129" y="485"/>
      <point x="86" y="442" type="curve"/>
      <point x="162" y="368" type="line"/>
      <point x="187" y="396"/>
      <point x="224" y="412"/>
      <point x="289" y="412" type="curve"/>
      <point x="359" y="412"/>
      <point x="386" y="389"/>
      <point x="386" y="339" type="curve"/>
    </contour>
    <contour>
      <point x="404" y="-11"/>
      <point x="461" y="76"/>
      <point x="461" y="76" type="curve"/>
      <point x="407" y="153" type="line"/>
      <point x="396" y="123"/>
      <point x="349" y="88"/>
      <point x="287" y="88" type="curve"/>
      <point x="201" y="88"/>
      <point x="176" y="108"/>
      <point x="176" y="153" type="curve"/>
      <point x="59" y="153" type="line"/>
      <point x="59" y="41"/>
      <point x="127" y="-11"/>
      <point x="270" y="-11" type="curve"/>
    </contour>
    <contour>
      <point x="176" y="153" type="line"/>
      <point x="176" y="203"/>
      <point x="194" y="221"/>
      <point x="324" y="221" type="curve"/>
      <point x="290" y="316" type="line"/>
      <point x="130" y="316"/>
      <point x="59" y="264"/>
      <point x="59" y="153" type="curve"/>
    </contour>
    <contour>
      <point x="566" y="52" type="line"/>
      <point x="457" y="161" type="line"/>
      <point x="382" y="87" type="line"/>
      <point x="490" y="-20" type="line"/>
    </contour>
    <contour>
      <point x="464" y="221" type="line"/>
      <point x="464" y="316" type="line"/>
      <point x="290" y="316" type="line"/>
      <point x="324" y="221" type="line"/>
    </contour>
    <contour>
      <point x="506" y="294" type="line"/>
      <point x="386" y="294" type="line"/>
      <point x="386" y="116" type="line"/>
      <point x="506" y="89" type="line"/>
    </contour>
    <contour>
      <point x="506" y="209" type="line"/>
      <point x="506" y="366" type="line"/>
      <point x="386" y="339" type="line"/>
      <point x="386" y="209" type="line"/>
    </contour>
  </outline>
</glyph>
<glyph name="b" format="1">
  <advance width="600"/>
  <unicode hex="0062"/>
  <outline>
    <contour>
      <point x="172" y="0" type="line"/>
      <point x="200" y="71" type="line"/>
      <point x="200" y="800" type="line"/>
      <point x="80" y="800" type="line"/>
      <point x="80" y="0" type="line"/>
    </contour>
    <contour>
      <point x="189" y="300" type="line"/>
      <point x="202" y="346"/>
      <point x="240" y="410"/>
      <point x="313" y="410" type="curve" smooth="yes"/>
      <point x="396" y="410"/>
      <point x="421" y="362"/>
      <point x="421" y="251" type="curve"/>
      <point x="541" y="251" type="line"/>
      <point x="541" y="434"/>
      <point x="467" y="511"/>
      <point x="337" y="511" type="curve" smooth="yes"/>
      <point x="219" y="511"/>
      <point x="142" y="414"/>
      <point x="142" y="302" type="curve"/>
    </contour>
    <contour>
      <point x="142" y="98"/>
      <point x="209" y="-11"/>
      <point x="327" y="-11" type="curve" smooth="yes"/>
      <point x="457" y="-11"/>
      <point x="541" y="68"/>
      <point x="541" y="251" type="curve"/>
      <point x="421" y="251" type="line"/>
      <point x="421" y="140"/>
      <point x="386" y="90"/>
      <point x="303" y="90" type="curve" smooth="yes"/>
      <point x="230" y="90"/>
      <point x="192" y="156"/>
      <point x="189" y="212" type="curve"/>
      <point x="142" y="210" type="line"/>
    </contour>
  </outline>
</glyph>
<glyph name="c" format="1">
  <advance width="600"/>
  <unicode hex="0063"/>
  <outline>
    <contour>
      <point x="433" y="158" type="line"/>
      <point x="409" y="112"/>
      <point x="377" y="90"/>
      <point x="334" y="90" type="curve" smooth="yes"/>
      <point x="268" y="90"/>
      <point x="218" y="133"/>
      <point x="218" y="251" type="curve" smooth="yes"/>
      <point x="218" y="371"/>
      <point x="268" y="411"/>
      <point x="334" y="411" type="curve" smooth="yes"/>
      <point x="377" y="411"/>
      <point x="412" y="388"/>
      <point x="434" y="334" type="curve"/>
      <point x="542" y="392" type="line"/>
      <point x="494" y="482"/>
      <point x="421" y="512"/>
      <point x="337" y="512" type="curve" smooth="yes"/>
      <point x="206" y="512"/>
      <point x="93" y="444"/>
      <point x="93" y="251" type="curve" smooth="yes"/>
      <point x="93" y="60"/>
      <point x="206" y="-11"/>
      <point x="337" y="-11" type="curve" smooth="yes"/>
      <point x="422" y="-11"/>
      <point x="494" y="20"/>
      <point x="542" y="102" type="curve"/>
    </contour>
  </outline>
</glyph>
<glyph name="e" format="1">
  <advance width="600"/>
  <unicode hex="0065"/>
  <outline>
    <contour>
      <point x="434" y="150" type="line"/>
      <point x="406" y="106"/>
      <point x="368" y="89"/>
      <point x="320" y="90" type="curve" smooth="yes"/>
      <point x="250" y="90"/>
      <point x="205" y="131"/>
      <point x="205" y="247" type="curve" smooth="yes"/>
      <point x="205" y="374"/>
      <point x="253" y="412"/>
      <point x="322" y="412" type="curve" smooth="yes"/>
      <point x="388" y="412"/>
      <point x="420" y="376"/>
      <point x="427" y="307" type="curve"/>
      <point x="548" y="215" type="line"/>
      <point x="558" y="396"/>
      <point x="482" y="512"/>
      <point x="326" y="512" type="curve" smooth="yes"/>
      <point x="194" y="512"/>
      <point x="85" y="432"/>
      <point x="85" y="251" type="curve" smooth="yes"/>
      <point x="85" y="72"/>
      <point x="191" y="-11"/>
      <point x="323" y="-11" type="curve" smooth="yes"/>
      <point x="407" y="-11"/>
      <point x="489" y="23"/>
      <point x="534" y="95" type="curve"/>
    </contour>
    <contour>
      <point x="197" y="215" type="line"/>
      <point x="548" y="215" type="line"/>
      <point x="471" y="307" type="line"/>
      <point x="197" y="307" type="line"/>
    </contour>
  </outline>
</glyph>
<glyph name="f" format="1">
  <advance width="600"/>
  <unicode hex="0066"/>
  <outline>
    <contour>
      <point x="347" y="0" type="line"/>
      <point x="347" y="588" type="line"/>
      <point x="228" y="617" type="line"/>
      <point x="228" y="0" type="line"/>
    </contour>
    <contour>
      <point x="119" y="400" type="line"/>
      <point x="519" y="400" type="line"/>
      <point x="519" y="500" type="line"/>
      <point x="119" y="500" type="line"/>
    </contour>
    <contour>
      <point x="552" y="789" type="line"/>
      <point x="525" y="799"/>
      <point x="492" y="807"/>
      <point x="442" y="807" type="curve"/>
      <point x="313" y="807"/>
      <point x="228" y="744"/>
      <point x="228" y="617" type="curve"/>
      <point x="347" y="588" type="line"/>
      <point x="347" y="674"/>
      <point x="374" y="706"/>
      <point x="449" y="706" type="curve"/>
      <point x="478" y="706"/>
      <point x="499" y="703"/>
      <point x="515" y="697" type="curve"/>
    </contour>
  </outline>
</glyph>
<glyph name="g" format="1">
  <advance width="600"/>
  <unicode hex="0067"/>
  <outline>
    <contour>
      <point x="401" y="149"/>
      <point x="524" y="188"/>
      <point x="524" y="331" type="curve" smooth="yes"/>
      <point x="524" y="473"/>
      <point x="416" y="512"/>
      <point x="301" y="512" type="curve" smooth="yes"/>
      <point x="185" y="512"/>
      <point x="77" y="473"/>
      <point x="77" y="331" type="curve" smooth="yes"/>
      <point x="77" y="188"/>
      <point x="185" y="149"/>
      <point x="301" y="149" type="curve" smooth="yes"/>
    </contour>
    <contour>
      <point x="231" y="247"/>
      <point x="202" y="266"/>
      <point x="202" y="331" type="curve" smooth="yes"/>
      <point x="202" y="395"/>
      <point x="226" y="414"/>
      <point x="301" y="414" type="curve" smooth="yes"/>
      <point x="375" y="414"/>
      <point x="399" y="401"/>
      <point x="399" y="331" type="curve" smooth="yes"/>
      <point x="399" y="266"/>
      <point x="370" y="247"/>
      <point x="301" y="247" type="curve" smooth="yes"/>
    </contour>
    <contour>
      <point x="267" y="-1" type="line"/>
      <point x="277" y="90" type="line"/>
      <point x="262" y="90" type="line" smooth="yes"/>
      <point x="189" y="90"/>
      <point x="218" y="142"/>
      <point x="241" y="170" type="curve"/>
      <point x="176" y="199" type="line"/>
      <point x="151" y="181"/>
      <point x="98" y="155"/>
      <point x="96" y="92" type="curve" smooth="yes"/>
      <point x="94" y="28"/>
      <point x="176" y="-1"/>
      <point x="253" y="-1" type="curve" smooth="yes"/>
    </contour>
    <contour>
      <point x="66" y="-156"/>
      <point x="163" y="-196"/>
      <point x="307" y="-196" type="curve"/>
      <point x="307" y="-102" type="line"/>
      <point x="244" y="-102"/>
      <point x="209" y="-93"/>
      <point x="191" y="-67" type="curve" smooth="yes"/>
      <point x="175" y="-43"/>
      <point x="191" y="-1"/>
      <point x="212" y="17" type="curve"/>
      <point x="138" y="45" type="line"/>
      <point x="113" y="27"/>
      <point x="66" y="-6"/>
      <point x="66" y="-69" type="curve" smooth="yes"/>
    </contour>
    <contour>
      <point x="554" y="41"/>
      <point x="505" y="90"/>
      <point x="403" y="90" type="curve"/>
      <point x="365" y="-1" type="line"/>
      <point x="427" y="-1"/>
      <point x="431" y="-26"/>
      <point x="425" y="-54" type="curve" smooth="yes"/>
      <point x="416" y="-90"/>
      <point x="370" y="-102"/>
      <point x="307" y="-102" type="curve"/>
      <point x="307" y="-196" type="line"/>
      <point x="464" y="-196"/>
      <point x="534" y="-129"/>
      <point x="544" y="-43" type="curve" smooth="yes"/>
    </contour>
    <contour>
      <point x="403" y="90" type="line"/>
      <point x="403" y="90"/>
      <point x="402" y="90"/>
      <point x="402" y="90" type="curve" smooth="yes"/>
      <point x="277" y="90" type="line"/>
      <point x="267" y="-1" type="line"/>
      <point x="365" y="-1" type="line"/>
    </contour>
    <contour>
      <point x="393" y="423" type="line"/>
      <point x="462" y="355" type="line"/>
      <point x="579" y="471" type="line"/>
      <point x="509" y="537" type="line"/>
    </contour>
  </outline>
</glyph>
<glyph name="h" format="1">
  <advance width="600"/>
  <unicode hex="0068"/>
  <outline>
    <contour>
      <point x="186" y="0" type="line"/>
      <point x="186" y="800" type="line"/>
      <point x="66" y="800" type="line"/>
      <point x="66" y="0" type="line"/>
    </contour>
    <contour>
      <point x="180" y="319" type="line"/>
      <point x="189" y="343"/>
      <point x="232" y="410"/>
      <point x="311" y="410" type="curve" smooth="yes"/>
      <point x="389" y="410"/>
      <point x="401" y="353"/>
      <point x="401" y="243" type="curve" smooth="yes"/>
      <point x="401" y="0" type="line"/>
      <point x="521" y="0" type="line"/>
      <point x="521" y="291" type="line" smooth="yes"/>
      <point x="521" y="454"/>
      <point x="458" y="511"/>
      <point x="342" y="511" type="curve" smooth="yes"/>
      <point x="214" y="511"/>
      <point x="127" y="428"/>
      <point x="127" y="316" type="curve"/>
    </contour>
  </outline>
</glyph>
<glyph name="i" format="1">
  <advance width="600"/>
  <unicode hex="0069"/>
  <outline>
    <contour>
      <point x="111" y="400" type="line"/>
      <point x="245" y="400" type="line"/>
      <point x="245" y="500" type="line"/>
      <point x="111" y="500" type="line"/>
    </contour>
    <contour>
      <point x="360" y="56" type="line"/>
      <point x="360" y="500" type="line"/>
      <point x="240" y="500" type="line"/>
      <point x="240" y="31" type="line"/>
    </contour>
    <contour>
      <point x="240" y="0" type="line"/>
      <point x="480" y="0" type="line"/>
      <point x="480" y="100" type="line"/>
      <point x="240" y="100" type="line"/>
    </contour>
    <contour>
      <point x="343" y="618"/>
      <point x="378" y="653"/>
      <point x="378" y="698" type="curve" smooth="yes"/>
      <point x="378" y="743"/>
      <point x="343" y="778"/>
      <point x="298" y="778" type="curve" smooth="yes"/>
      <point x="254" y="778"/>
      <point x="219" y="743"/>
      <point x="219" y="698" type="curve" smooth="yes"/>
      <point x="219" y="653"/>
      <point x="254" y="618"/>
      <point x="298" y="618" type="curve" smooth="yes"/>
    </contour>
  </outline>
</glyph>
<glyph name="j" format="1">
  <advance width="600"/>
  <unicode hex="006A"/>
  <outline>
    <contour>
      <point x="324" y="500" type="line"/>
      <point x="324" y="12" type="line"/>
      <point x="443" y="-12" type="line"/>
      <point x="443" y="500" type="line"/>
    </contour>
    <contour>
      <point x="135" y="-181" type="line"/>
      <point x="159" y="-187"/>
      <point x="188" y="-192"/>
      <point x="229" y="-192" type="curve"/>
      <point x="363" y="-192"/>
      <point x="443" y="-130"/>
      <point x="443" y="-12" type="curve"/>
      <point x="324" y="12" type="line"/>
      <point x="324" y="-60"/>
      <point x="297" y="-91"/>
      <point x="222" y="-91" type="curve"/>
      <point x="201" y="-91"/>
      <point x="177" y="-87"/>
      <point x="161" y="-81" type="curve"/>
    </contour>
    <contour>
      <point x="159" y="400" type="line"/>
      <point x="409" y="400" type="line"/>
      <point x="409" y="500" type="line"/>
      <point x="159" y="500" type="line"/>
    </contour>
    <contour>
      <point x="423" y="618"/>
      <point x="458" y="653"/>
      <point x="458" y="698" type="curve" smooth="yes"/>
      <point x="458" y="743"/>
      <point x="423" y="778"/>
      <point x="379" y="778" type="curve" smooth="yes"/>
      <point x="334" y="778"/>
      <point x="299" y="743"/>
      <point x="299" y="698" type="curve" smooth="yes"/>
      <point x="299" y="653"/>
      <point x="334" y="618"/>
      <point x="379" y="618" type="curve" smooth="yes"/>
    </contour>
  </outline>
</glyph>
<glyph name="k" format="1">
  <advance width="600"/>
  <unicode hex="006B"/>
  <outline>
    <contour>
      <point x="209" y="0" type="line"/>
      <point x="209" y="800" type="line"/>
      <point x="90" y="800" type="line"/>
      <point x="90" y="0" type="line"/>
    </contour>
    <contour>
      <point x="174" y="209" type="line"/>
      <point x="296" y="209" type="line"/>
      <point x="296" y="309" type="line"/>
      <point x="174" y="309" type="line"/>
    </contour>
    <contour>
      <point x="208" y="279" type="line"/>
      <point x="318" y="246" type="line"/>
      <point x="553" y="500" type="line"/>
      <point x="410" y="500" type="line"/>
    </contour>
    <contour>
      <point x="570" y="0" type="line"/>
      <point x="318" y="279" type="line"/>
      <point x="181" y="279" type="line"/>
      <point x="427" y="0" type="line"/>
    </contour>
  </outline>
</glyph>
<glyph name="l" format="1">
  <advance width="600"/>
  <unicode hex="006C"/>
  <outline>
    <contour>
      <point x="358" y="155" type="line"/>
      <point x="358" y="800" type="line"/>
      <point x="238" y="800" type="line"/>
      <point x="238" y="122" type="line"/>
    </contour>
    <contour>
      <point x="468" y="-11"/>
      <point x="519" y="-1"/>
      <point x="524" y="0" type="curve"/>
      <point x="524" y="98" type="line"/>
      <point x="516" y="96"/>
      <point x="457" y="84"/>
      <point x="419" y="84" type="curve"/>
      <point x="392" y="84"/>
      <point x="358" y="90"/>
      <point x="358" y="155" type="curve"/>
      <point x="238" y="122" type="line"/>
      <point x="238" y="9"/>
      <point x="322" y="-11"/>
      <point x="398" y="-11" type="curve"/>
    </contour>
    <contour>
      <point x="243" y="700" type="line"/>
      <point x="243" y="800" type="line"/>
      <point x="88" y="800" type="line"/>
      <point x="88" y="700" type="line"/>
    </contour>
  </outline>
</glyph>
<glyph name="m" format="1">
  <advance width="600"/>
  <unicode hex="006D"/>
  <outline>
    <contour>
      <point x="587" y="0" type="line"/>
      <point x="587" y="322" type="line" smooth="yes"/>
      <point x="587" y="485"/>
      <point x="528" y="511"/>
      <point x="462" y="511" type="curve" smooth="yes"/>
      <point x="382" y="511"/>
      <point x="313" y="424"/>
      <point x="313" y="312" type="curve"/>
      <point x="360" y="343" type="line"/>
      <point x="367" y="378"/>
      <point x="404" y="410"/>
      <point x="431" y="410" type="curve" smooth="yes"/>
      <point x="464" y="410"/>
      <point x="473" y="389"/>
      <point x="473" y="296" type="curve" smooth="yes"/>
      <point x="473" y="0" type="line"/>
    </contour>
    <contour>
      <point x="154" y="0" type="line"/>
      <point x="154" y="402" type="line"/>
      <point x="154" y="402"/>
      <point x="123" y="500"/>
      <point x="123" y="500" type="curve"/>
      <point x="39" y="500" type="line"/>
      <point x="39" y="500"/>
      <point x="39" y="436"/>
      <point x="39" y="345" type="curve"/>
      <point x="39" y="0" type="line"/>
    </contour>
    <contour>
      <point x="365" y="0" type="line"/>
      <point x="365" y="360" type="line" smooth="yes"/>
      <point x="365" y="360"/>
      <point x="359" y="378"/>
      <point x="359" y="392" type="curve" smooth="yes"/>
      <point x="359" y="475"/>
      <point x="306" y="511"/>
      <point x="246" y="511" type="curve" smooth="yes"/>
      <point x="164" y="511"/>
      <point x="100" y="424"/>
      <point x="100" y="312" type="curve"/>
      <point x="149" y="343" type="line"/>
      <point x="156" y="378"/>
      <point x="189" y="410"/>
      <point x="217" y="410" type="curve" smooth="yes"/>
      <point x="250" y="410"/>
      <point x="261" y="389"/>
      <point x="261" y="296" type="curve" smooth="yes"/>
      <point x="261" y="0" type="line"/>
    </contour>
  </outline>
</glyph>
<glyph name="n" format="1">
  <advance width="600"/>
  <unicode hex="006E"/>
  <outline>
    <contour>
      <point x="206" y="323" type="line"/>
      <point x="219" y="356"/>
      <point x="256" y="410"/>
      <point x="329" y="410" type="curve" smooth="yes"/>
      <point x="405" y="410"/>
      <point x="415" y="362"/>
      <point x="415" y="265" type="curve" smooth="yes"/>
      <point x="415" y="0" type="line"/>
      <point x="535" y="0" type="line"/>
      <point x="535" y="282" type="line" smooth="yes"/>
      <point x="535" y="445"/>
      <point x="463" y="511"/>
      <point x="349" y="511" type="curve" smooth="yes"/>
      <point x="227" y="511"/>
      <point x="154" y="424"/>
      <point x="154" y="312" type="curve"/>
    </contour>
    <contour>
      <point x="91" y="500" type="line"/>
      <point x="91" y="500"/>
      <point x="91" y="436"/>
      <point x="91" y="345" type="curve"/>
      <point x="91" y="0" type="line"/>
      <point x="211" y="0" type="line"/>
      <point x="211" y="402" type="line"/>
      <point x="211" y="402"/>
      <point x="177" y="500"/>
      <point x="177" y="500" type="curve"/>
    </contour>
  </outline>
</glyph>
<glyph name="o" format="1">
  <advance width="600"/>
  <unicode hex="006F"/>
  <outline>
    <contour>
      <point x="423" y="-11"/>
      <point x="540" y="58"/>
      <point x="540" y="251" type="curve" smooth="yes"/>
      <point x="540" y="443"/>
      <point x="423" y="512"/>
      <point x="303" y="512" type="curve" smooth="yes"/>
      <point x="182" y="512"/>
      <point x="65" y="443"/>
      <point x="65" y="251" type="curve" smooth="yes"/>
      <point x="65" y="58"/>
      <point x="182" y="-11"/>
      <point x="303" y="-11" type="curve" smooth="yes"/>
    </contour>
    <contour>
      <point x="253" y="90"/>
      <point x="189" y="121"/>
      <point x="189" y="251" type="curve" smooth="yes"/>
      <point x="189" y="380"/>
      <point x="253" y="411"/>
      <point x="303" y="411" type="curve" smooth="yes"/>
      <point x="352" y="411"/>
      <point x="416" y="380"/>
      <point x="416" y="251" type="curve" smooth="yes"/>
      <point x="416" y="121"/>
      <point x="352" y="90"/>
      <point x="303" y="90" type="curve" smooth="yes"/>
    </contour>
  </outline>
</glyph>
<glyph name="p" format="1">
  <advance width="600"/>
  <unicode hex="0070"/>
  <outline>
    <contour>
      <point x="80" y="-200" type="line"/>
      <point x="200" y="-200" type="line"/>
      <point x="200" y="429" type="line"/>
      <point x="166" y="500" type="line"/>
      <point x="80" y="500" type="line"/>
    </contour>
    <contour>
      <point x="146" y="96"/>
      <point x="203" y="-11"/>
      <point x="331" y="-11" type="curve" smooth="yes"/>
      <point x="461" y="-11"/>
      <point x="540" y="66"/>
      <point x="540" y="249" type="curve"/>
      <point x="421" y="249" type="line"/>
      <point x="421" y="129"/>
      <point x="381" y="90"/>
      <point x="302" y="90" type="curve" smooth="yes"/>
      <point x="229" y="90"/>
      <point x="196" y="139"/>
      <point x="192" y="182" type="curve"/>
      <point x="146" y="208" type="line"/>
    </contour>
    <contour>
      <point x="192" y="306" type="line"/>
      <point x="195" y="349"/>
      <point x="239" y="411"/>
      <point x="312" y="411" type="curve" smooth="yes"/>
      <point x="391" y="411"/>
      <point x="421" y="369"/>
      <point x="421" y="249" type="curve"/>
      <point x="540" y="249" type="line"/>
      <point x="540" y="432"/>
      <point x="471" y="512"/>
      <point x="341" y="512" type="curve" smooth="yes"/>
      <point x="223" y="512"/>
      <point x="146" y="394"/>
      <point x="146" y="290" type="curve"/>
    </contour>
  </outline>
</glyph>
<glyph name="r" format="1">
  <advance width="600"/>
  <unicode hex="0072"/>
  <outline>
    <contour>
      <point x="337" y="332" type="line"/>
      <point x="350" y="365"/>
      <point x="396" y="408"/>
      <point x="469" y="408" type="curve" smooth="yes"/>
      <point x="511" y="408"/>
      <point x="537" y="397"/>
      <point x="542" y="392" type="curve"/>
      <point x="577" y="493" type="line"/>
      <point x="565" y="499"/>
      <point x="540" y="512"/>
      <point x="489" y="512" type="curve" smooth="yes"/>
      <point x="362" y="512"/>
      <point x="285" y="424"/>
      <point x="285" y="312" type="curve"/>
    </contour>
    <contour>
      <point x="496" y="0" type="line"/>
      <point x="496" y="100" type="line"/>
      <point x="103" y="100" type="line"/>
      <point x="103" y="0" type="line"/>
    </contour>
    <contour>
      <point x="341" y="0" type="line"/>
      <point x="341" y="402" type="line"/>
      <point x="308" y="500" type="line"/>
      <point x="222" y="500" type="line"/>
      <point x="222" y="345" type="line"/>
      <point x="222" y="0" type="line"/>
    </contour>
    <contour>
      <point x="262" y="400" type="line"/>
      <point x="262" y="500" type="line"/>
      <point x="103" y="500" type="line"/>
      <point x="103" y="400" type="line"/>
    </contour>
  </outline>
</glyph>
<glyph name="s" format="1">
  <advance width="600"/>
  <unicode hex="0073"/>
  <outline>
    <contour>
      <point x="415" y="-11"/>
      <point x="529" y="31"/>
      <point x="531" y="139" type="curve" smooth="yes"/>
      <point x="533" y="263"/>
      <point x="362" y="294"/>
      <point x="310" y="309" type="curve" smooth="yes"/>
      <point x="277" y="319"/>
      <point x="219" y="333"/>
      <point x="219" y="367" type="curve" smooth="yes"/>
      <point x="219" y="402"/>
      <point x="270" y="416"/>
      <point x="314" y="416" type="curve" smooth="yes"/>
      <point x="355" y="415"/>
      <point x="403" y="397"/>
      <point x="426" y="359" type="curve"/>
      <point x="516" y="419" type="line"/>
      <point x="473" y="485"/>
      <point x="391" y="512"/>
      <point x="311" y="512" type="curve" smooth="yes"/>
      <point x="213" y="512"/>
      <point x="97" y="472"/>
      <point x="99" y="376" type="curve" smooth="yes"/>
      <point x="102" y="262"/>
      <point x="241" y="224"/>
      <point x="297" y="209" type="curve" smooth="yes"/>
      <point x="331" y="200"/>
      <point x="411" y="184"/>
      <point x="411" y="142" type="curve" smooth="yes"/>
      <point x="411" y="104"/>
      <point x="362" y="88"/>
      <point x="306" y="88" type="curve" smooth="yes"/>
      <point x="251" y="88"/>
      <point x="185" y="110"/>
      <point x="164" y="146" type="curve"/>
      <point x="68" y="83" type="line"/>
      <point x="112" y="18"/>
      <point x="209" y="-11"/>
      <point x="302" y="-11" type="curve" smooth="yes"/>
    </contour>
  </outline>
</glyph>
<glyph name="t" format="1">
  <advance width="600"/>
  <unicode hex="0074"/>
  <outline>
    <contour>
      <point x="338" y="160" type="line"/>
      <point x="338" y="680" type="line"/>
      <point x="218" y="680" type="line"/>
      <point x="218" y="122" type="line"/>
    </contour>
    <contour>
      <point x="436" y="-11"/>
      <point x="476" y="-1"/>
      <point x="484" y="0" type="curve"/>
      <point x="484" y="98" type="line"/>
      <point x="476" y="96"/>
      <point x="426" y="84"/>
      <point x="391" y="84" type="curve"/>
      <point x="361" y="84"/>
      <point x="338" y="97"/>
      <point x="338" y="160" type="curve"/>
      <point x="218" y="122" type="line"/>
      <point x="218" y="15"/>
      <point x="291" y="-11"/>
      <point x="369" y="-11" type="curve"/>
    </contour>
    <contour>
      <point x="513" y="400" type="line"/>
      <point x="513" y="500" type="line"/>
      <point x="78" y="500" type="line"/>
      <point x="78" y="400" type="line"/>
    </contour>
  </outline>
</glyph>
<glyph name="u" format="1">
  <advance width="600"/>
  <unicode hex="0075"/>
  <outline>
    <contour>
      <point x="410" y="178" type="line"/>
      <point x="397" y="145"/>
      <point x="360" y="91"/>
      <point x="283" y="91" type="curve" smooth="yes"/>
      <point x="208" y="91"/>
      <point x="194" y="143"/>
      <point x="194" y="249" type="curve" smooth="yes"/>
      <point x="194" y="501" type="line"/>
      <point x="74" y="501" type="line"/>
      <point x="74" y="219" type="line" smooth="yes"/>
      <point x="74" y="56"/>
      <point x="138" y="-10"/>
      <point x="258" y="-10" type="curve" smooth="yes"/>
      <point x="385" y="-10"/>
      <point x="453" y="77"/>
      <point x="453" y="189" type="curve"/>
    </contour>
    <contour>
      <point x="518" y="0" type="line" smooth="yes"/>
      <point x="518" y="0"/>
      <point x="517" y="101"/>
      <point x="517" y="101" type="curve"/>
      <point x="517" y="501" type="line"/>
      <point x="397" y="501" type="line"/>
      <point x="397" y="99" type="line"/>
      <point x="397" y="99"/>
      <point x="420" y="0"/>
      <point x="420" y="0" type="curve"/>
    </contour>
  </outline>
</glyph>
<glyph name="v" format="1">
  <advance width="600"/>
  <unicode hex="0076"/>
  <outline>
    <contour>
      <point x="85" y="500" type="line"/>
      <point x="207" y="0" type="line"/>
      <point x="316" y="0" type="line"/>
      <point x="208" y="500" type="line"/>
    </contour>
    <contour>
      <point x="396" y="500" type="line"/>
      <point x="288" y="0" type="line"/>
      <point x="397" y="0" type="line"/>
      <point x="519" y="500" type="line"/>
    </contour>
    <contour>
      <point x="372" y="0" type="line"/>
      <point x="372" y="100" type="line"/>
      <point x="232" y="100" type="line"/>
      <point x="232" y="0" type="line"/>
    </contour>
  </outline>
</glyph>
<glyph name="w" format="1">
  <advance width="600"/>
  <unicode hex="0077"/>
  <outline>
    <contour>
      <point x="97" y="0" type="line"/>
      <point x="191" y="0" type="line"/>
      <point x="140" y="500" type="line"/>
      <point x="25" y="500" type="line"/>
    </contour>
    <contour>
      <point x="406" y="0" type="line"/>
      <point x="500" y="0" type="line"/>
      <point x="571" y="500" type="line"/>
      <point x="457" y="500" type="line"/>
    </contour>
    <contour>
      <point x="348" y="500" type="line"/>
      <point x="249" y="500" type="line"/>
      <point x="145" y="0" type="line"/>
      <point x="227" y="0" type="line"/>
    </contour>
    <contour>
      <point x="452" y="0" type="line"/>
      <point x="348" y="500" type="line"/>
      <point x="249" y="500" type="line"/>
      <point x="370" y="0" type="line"/>
    </contour>
  </outline>
</glyph>
<glyph name="x" format="1">
  <advance width="600"/>
  <unicode hex="0078"/>
  <outline>
    <contour>
      <point x="292" y="273" type="line"/>
      <point x="389" y="240" type="line"/>
      <point x="554" y="500" type="line"/>
      <point x="425" y="500" type="line"/>
    </contour>
    <contour>
      <point x="274" y="203" type="line"/>
      <point x="366" y="203" type="line"/>
      <point x="366" y="303" type="line"/>
      <point x="274" y="303" type="line"/>
    </contour>
    <contour>
      <point x="554" y="0" type="line"/>
      <point x="384" y="273" type="line"/>
      <point x="268" y="273" type="line"/>
      <point x="425" y="0" type="line"/>
    </contour>
    <contour>
      <point x="224" y="303" type="line"/>
      <point x="224" y="203" type="line"/>
      <point x="316" y="203" type="line"/>
      <point x="316" y="303" type="line"/>
    </contour>
    <contour>
      <point x="36" y="500" type="line"/>
      <point x="201" y="240" type="line"/>
      <point x="298" y="273" type="line"/>
      <point x="165" y="500" type="line"/>
    </contour>
    <contour>
      <point x="322" y="273" type="line"/>
      <point x="206" y="273" type="line"/>
      <point x="36" y="0" type="line"/>
      <point x="165" y="0" type="line"/>
    </contour>
  </outline>
</glyph>
<glyph name="y" format="1">
  <advance width="600"/>
  <unicode hex="0079"/>
  <outline>
    <contour>
      <point x="59" y="500" type="line"/>
      <point x="241" y="0" type="line"/>
      <point x="321" y="56" type="line"/>
      <point x="192" y="500" type="line"/>
    </contour>
    <contour>
      <point x="393" y="500" type="line"/>
      <point x="264" y="56" type="line"/>
      <point x="354" y="0" type="line"/>
      <point x="526" y="500" type="line"/>
    </contour>
    <contour>
      <point x="67" y="-179" type="line"/>
      <point x="74" y="-182"/>
      <point x="106" y="-192"/>
      <point x="142" y="-192" type="curve"/>
      <point x="247" y="-192"/>
      <point x="310" y="-118"/>
      <point x="354" y="0" type="curve"/>
      <point x="295" y="56" type="line"/>
      <point x="243" y="11" type="line"/>
      <point x="208" y="-68"/>
      <point x="181" y="-90"/>
      <point x="132" y="-90" type="curve"/>
      <point x="119" y="-90"/>
      <point x="105" y="-86"/>
      <point x="104" y="-85" type="curve"/>
    </contour>
  </outline>
</glyph>
<glyph name="z" format="1">
  <advance width="600"/>
  <unicode hex="007A"/>
  <outline>
    <contour>
      <point x="245" y="100" type="line"/>
      <point x="498" y="400" type="line"/>
      <point x="364" y="400" type="line"/>
      <point x="109" y="100" type="line"/>
    </contour>
    <contour>
      <point x="117" y="400" type="line"/>
      <point x="498" y="400" type="line"/>
      <point x="498" y="500" type="line"/>
      <point x="117" y="500" type="line"/>
    </contour>
    <contour>
      <point x="109" y="0" type="line"/>
      <point x="510" y="0" type="line"/>
      <point x="510" y="100" type="line"/>
      <point x="109" y="100" type="line"/>
    </contour>
  </outline>
</glyph>
<glyph name="braceleft" format="1">
  <advance width="600"/>
  <unicode hex="007B"/>
  <outline>
    <contour>
      <point x="206" y="315" type="line" smooth="yes"/>
      <point x="272" y="315"/>
      <point x="357" y="318"/>
      <point x="357" y="436" type="curve" smooth="yes"/>
      <point x="357" y="593" type="line" smooth="yes"/>
      <point x="357" y="679"/>
      <point x="385" y="711"/>
      <point x="459" y="711" type="curve" smooth="yes"/>
      <point x="476" y="711" type="line"/>
      <point x="476" y="811" type="line"/>
      <point x="443" y="811" type="line" smooth="yes"/>
      <point x="327" y="811"/>
      <point x="242" y="747"/>
      <point x="242" y="629" type="curve" smooth="yes"/>
      <point x="242" y="476" type="line" smooth="yes"/>
      <point x="242" y="399"/>
      <point x="224" y="367"/>
      <point x="177" y="367" type="curve" smooth="yes"/>
      <point x="167" y="367" type="line"/>
      <point x="167" y="315" type="line"/>
    </contour>
    <contour>
      <point x="167" y="266" type="line"/>
      <point x="177" y="266" type="line" smooth="yes"/>
      <point x="224" y="266"/>
      <point x="242" y="234"/>
      <point x="242" y="157" type="curve" smooth="yes"/>
      <point x="242" y="4" type="line" smooth="yes"/>
      <point x="242" y="-114"/>
      <point x="327" y="-178"/>
      <point x="443" y="-178" type="curve" smooth="yes"/>
      <point x="476" y="-178" type="line"/>
      <point x="476" y="-78" type="line"/>
      <point x="459" y="-78" type="line" smooth="yes"/>
      <point x="385" y="-78"/>
      <point x="357" y="-46"/>
      <point x="357" y="40" type="curve" smooth="yes"/>
      <point x="357" y="197" type="line" smooth="yes"/>
      <point x="357" y="315"/>
      <point x="272" y="318"/>
      <point x="206" y="318" type="curve" smooth="yes"/>
      <point x="167" y="318" type="line"/>
    </contour>
  </outline>
</glyph>
<glyph name="bar" format="1">
  <advance width="600"/>
  <unicode hex="007C"/>
  <outline>
    <contour>
      <point x="246" y="-130" type="line"/>
      <point x="349" y="-130" type="line"/>
      <point x="349" y="800" type="line"/>
      <point x="246" y="800" type="line"/>
    </contour>
  </outline>
</glyph>
<glyph name="cent" format="1">
  <advance width="600"/>
  <unicode hex="00A2"/>
  <outline>
    <contour>
      <point x="398" y="85"/>
      <point x="472" y="121"/>
      <point x="520" y="203" type="curve"/>
      <point x="417" y="257" type="line"/>
      <point x="391" y="212"/>
      <point x="353" y="186"/>
      <point x="304" y="186" type="curve" smooth="yes"/>
      <point x="225" y="186"/>
      <point x="173" y="229"/>
      <point x="173" y="347" type="curve" smooth="yes"/>
      <point x="173" y="467"/>
      <point x="225" y="507"/>
      <point x="304" y="507" type="curve" smooth="yes"/>
      <point x="352" y="507"/>
      <point x="389" y="482"/>
      <point x="415" y="429" type="curve"/>
      <point x="518" y="483" type="line"/>
      <point x="470" y="573"/>
      <point x="397" y="608"/>
      <point x="307" y="608" type="curve" smooth="yes"/>
      <point x="157" y="608"/>
      <point x="49" y="540"/>
      <point x="49" y="347" type="curve" smooth="yes"/>
      <point x="49" y="156"/>
      <point x="157" y="85"/>
      <point x="307" y="85" type="curve" smooth="yes"/>
    </contour>
    <contour>
      <point x="343" y="0" type="line"/>
      <point x="343" y="120" type="line"/>
      <point x="242" y="120" type="line"/>
      <point x="242" y="0" type="line"/>
    </contour>
    <contour>
      <point x="343" y="580" type="line"/>
      <point x="343" y="700" type="line"/>
      <point x="242" y="700" type="line"/>
      <point x="242" y="580" type="line"/>
    </contour>
  </outline>
</glyph>
<glyph name="sterling" format="1">
  <advance width="600"/>
  <unicode hex="00A3"/>
  <outline>
    <contour>
      <point x="235" y="106"/>
      <point x="293" y="186"/>
      <point x="278" y="290" type="curve" smooth="yes"/>
      <point x="269" y="352"/>
      <point x="235" y="440"/>
      <point x="235" y="505" type="curve" smooth="yes"/>
      <point x="235" y="572"/>
      <point x="281" y="605"/>
      <point x="345" y="605" type="curve" smooth="yes"/>
      <point x="402" y="605"/>
      <point x="432" y="587"/>
      <point x="451" y="548" type="curve"/>
      <point x="540" y="601" type="line"/>
      <point x="513" y="662"/>
      <point x="449" y="706"/>
      <point x="345" y="706" type="curve" smooth="yes"/>
      <point x="213" y="706"/>
      <point x="110" y="626"/>
      <point x="110" y="505" type="curve" smooth="yes"/>
      <point x="110" y="426"/>
      <point x="149" y="350"/>
      <point x="162" y="289" type="curve" smooth="yes"/>
      <point x="180" y="203"/>
      <point x="125" y="110"/>
      <point x="77" y="72" type="curve"/>
      <point x="168" y="67" type="line"/>
    </contour>
    <contour>
      <point x="121" y="-13"/>
      <point x="199" y="13"/>
      <point x="261" y="12" type="curve" smooth="yes"/>
      <point x="315" y="11"/>
      <point x="357" y="-10"/>
      <point x="423" y="-13" type="curve" smooth="yes"/>
      <point x="492" y="-16"/>
      <point x="534" y="1"/>
      <point x="534" y="1" type="curve"/>
      <point x="504" y="101" type="line"/>
      <point x="504" y="101"/>
      <point x="481" y="80"/>
      <point x="423" y="83" type="curve" smooth="yes"/>
      <point x="367" y="86"/>
      <point x="353" y="101"/>
      <point x="288" y="103" type="curve" smooth="yes"/>
      <point x="230" y="105"/>
      <point x="189" y="82"/>
      <point x="174" y="71" type="curve"/>
      <point x="174" y="71"/>
      <point x="80" y="72"/>
      <point x="77" y="72" type="curve"/>
      <point x="110" y="-16" type="line"/>
    </contour>
    <contour>
      <point x="449" y="300" type="line"/>
      <point x="449" y="396" type="line"/>
      <point x="47" y="396" type="line"/>
      <point x="47" y="300" type="line"/>
    </contour>
  </outline>
</glyph>
<glyph name="currency" format="1">
  <advance width="600"/>
  <unicode hex="00A4"/>
  <outline>
    <contour>
      <point x="417" y="169"/>
      <point x="515" y="232"/>
      <point x="515" y="370" type="curve" smooth="yes"/>
      <point x="515" y="508"/>
      <point x="417" y="570"/>
      <point x="303" y="570" type="curve" smooth="yes"/>
      <point x="188" y="570"/>
      <point x="90" y="508"/>
      <point x="90" y="370" type="curve" smooth="yes"/>
      <point x="90" y="232"/>
      <point x="188" y="169"/>
      <point x="303" y="169" type="curve" smooth="yes"/>
    </contour>
    <contour>
      <point x="197" y="201" type="line"/>
      <point x="135" y="263" type="line"/>
      <point x="46" y="176" type="line"/>
      <point x="108" y="112" type="line"/>
    </contour>
    <contour>
      <point x="246" y="262"/>
      <point x="201" y="298"/>
      <point x="201" y="370" type="curve" smooth="yes"/>
      <point x="201" y="441"/>
      <point x="246" y="477"/>
      <point x="303" y="477" type="curve" smooth="yes"/>
      <point x="359" y="477"/>
      <point x="404" y="441"/>
      <point x="404" y="370" type="curve" smooth="yes"/>
      <point x="404" y="298"/>
      <point x="359" y="262"/>
      <point x="303" y="262" type="curve" smooth="yes"/>
    </contour>
    <contour>
      <point x="559" y="178" type="line"/>
      <point x="470" y="265" type="line"/>
      <point x="408" y="203" type="line"/>
      <point x="497" y="114" type="line"/>
    </contour>
    <contour>
      <point x="197" y="539" type="line"/>
      <point x="108" y="628" type="line"/>
      <point x="46" y="564" type="line"/>
      <point x="135" y="477" type="line"/>
    </contour>
    <contour>
      <point x="559" y="562" type="line"/>
      <point x="497" y="626" type="line"/>
      <point x="408" y="537" type="line"/>
      <point x="470" y="475" type="line"/>
    </contour>
  </outline>
</glyph>
<glyph name="yen" format="1">
  <advance width="600"/>
  <unicode hex="00A5"/>
  <outline>
    <contour>
      <point x="300" y="419" type="line"/>
      <point x="360" y="297" type="line"/>
      <point x="528" y="700" type="line"/>
      <point x="399" y="700" type="line"/>
    </contour>
    <contour>
      <point x="72" y="700" type="line"/>
      <point x="243" y="292" type="line"/>
      <point x="300" y="419" type="line"/>
      <point x="201" y="700" type="line"/>
    </contour>
    <contour>
      <point x="360" y="0" type="line"/>
      <point x="360" y="419" type="line"/>
      <point x="241" y="419" type="line"/>
      <point x="241" y="0" type="line"/>
    </contour>
    <contour>
      <point x="107" y="264" type="line"/>
      <point x="494" y="264" type="line"/>
      <point x="494" y="359" type="line"/>
      <point x="107" y="359" type="line"/>
    </contour>
    <contour>
      <point x="107" y="118" type="line"/>
      <point x="494" y="118" type="line"/>
      <point x="494" y="214" type="line"/>
      <point x="107" y="214" type="line"/>
    </contour>
  </outline>
</glyph>
<glyph name="brokenbar" format="1">
  <advance width="600"/>
  <unicode hex="00A6"/>
  <outline>
    <contour>
      <point x="246" y="213" type="line"/>
      <point x="246" y="-130" type="line"/>
      <point x="349" y="-130" type="line"/>
      <point x="349" y="213" type="line"/>
    </contour>
    <contour>
      <point x="349" y="453" type="line"/>
      <point x="349" y="800" type="line"/>
      <point x="246" y="800" type="line"/>
      <point x="246" y="453" type="line"/>
    </contour>
  </outline>
</glyph>
<glyph name="section" format="1">
  <advance width="600"/>
  <unicode hex="00A7"/>
  <outline>
    <contour>
      <point x="285" y="457" type="line"/>
      <point x="202" y="445"/>
      <point x="83" y="402"/>
      <point x="83" y="307" type="curve" smooth="yes"/>
      <point x="83" y="186"/>
      <point x="223" y="155"/>
      <point x="287" y="137" type="curve" smooth="yes"/>
      <point x="346" y="120"/>
      <point x="413" y="104"/>
      <point x="413" y="56" type="curve" smooth="yes"/>
      <point x="413" y="8"/>
      <point x="364" y="-15"/>
      <point x="291" y="-15" type="curve" smooth="yes"/>
      <point x="214" y="-15"/>
      <point x="169" y="17"/>
      <point x="151" y="60" type="curve"/>
      <point x="54" y="11" type="line"/>
      <point x="95" y="-71"/>
      <point x="183" y="-109"/>
      <point x="291" y="-109" type="curve" smooth="yes"/>
      <point x="402" y="-109"/>
      <point x="528" y="-68"/>
      <point x="528" y="54" type="curve" smooth="yes"/>
      <point x="528" y="186"/>
      <point x="358" y="215"/>
      <point x="301" y="231" type="curve" smooth="yes"/>
      <point x="254" y="244"/>
      <point x="200" y="264"/>
      <point x="200" y="311" type="curve" smooth="yes"/>
      <point x="200" y="367"/>
      <point x="271" y="396"/>
      <point x="323" y="396" type="curve" smooth="yes"/>
      <point x="332" y="396"/>
      <point x="340" y="395"/>
      <point x="349" y="394" type="curve"/>
    </contour>
    <contour>
      <point x="384" y="134" type="line"/>
      <point x="462" y="153"/>
      <point x="528" y="204"/>
      <point x="528" y="292" type="curve" smooth="yes"/>
      <point x="528" y="429"/>
      <point x="354" y="461"/>
      <point x="297" y="477" type="curve" smooth="yes"/>
      <point x="250" y="490"/>
      <point x="205" y="504"/>
      <point x="205" y="551" type="curve" smooth="yes"/>
      <point x="205" y="597"/>
      <point x="266" y="612"/>
      <point x="310" y="612" type="curve" smooth="yes"/>
      <point x="365" y="612"/>
      <point x="407" y="591"/>
      <point x="428" y="541" type="curve"/>
      <point x="525" y="591" type="line"/>
      <point x="484" y="674"/>
      <point x="401" y="706"/>
      <point x="310" y="706" type="curve" smooth="yes"/>
      <point x="222" y="706"/>
      <point x="93" y="670"/>
      <point x="93" y="555" type="curve" smooth="yes"/>
      <point x="93" y="430"/>
      <point x="227" y="397"/>
      <point x="291" y="379" type="curve" smooth="yes"/>
      <point x="350" y="362"/>
      <point x="413" y="350"/>
      <point x="413" y="288" type="curve" smooth="yes"/>
      <point x="413" y="237"/>
      <point x="366" y="189"/>
      <point x="305" y="182" type="curve"/>
    </contour>
  </outline>
</glyph>
<glyph name="dieresis" format="1">
  <advance width="600"/>
  <unicode hex="00A8"/>
  <outline>
    <contour>
      <point x="235" y="629"/>
      <point x="267" y="661"/>
      <point x="267" y="701" type="curve" smooth="yes"/>
      <point x="267" y="742"/>
      <point x="235" y="774"/>
      <point x="195" y="774" type="curve" smooth="yes"/>
      <point x="154" y="774"/>
      <point x="122" y="742"/>
      <point x="122" y="701" type="curve" smooth="yes"/>
      <point x="122" y="661"/>
      <point x="154" y="629"/>
      <point x="195" y="629" type="curve" smooth="yes"/>
    </contour>
    <contour>
      <point x="447" y="629"/>
      <point x="479" y="661"/>
      <point x="479" y="701" type="curve" smooth="yes"/>
      <point x="479" y="742"/>
      <point x="447" y="774"/>
      <point x="406" y="774" type="curve" smooth="yes"/>
      <point x="366" y="774"/>
      <point x="334" y="742"/>
      <point x="334" y="701" type="curve" smooth="yes"/>
      <point x="334" y="661"/>
      <point x="366" y="629"/>
      <point x="406" y="629" type="curve" smooth="yes"/>
    </contour>
  </outline>
</glyph>
<glyph name="copyright" format="1">
  <advance width="600"/>
  <unicode hex="00A9"/>
  <outline>
    <contour>
      <point x="433" y="46"/>
      <point x="565" y="117"/>
      <point x="565" y="349" type="curve" smooth="yes"/>
      <point x="565" y="580"/>
      <point x="433" y="651"/>
      <point x="297" y="651" type="curve" smooth="yes"/>
      <point x="160" y="651"/>
      <point x="28" y="580"/>
      <point x="28" y="349" type="curve" smooth="yes"/>
      <point x="28" y="117"/>
      <point x="160" y="46"/>
      <point x="297" y="46" type="curve" smooth="yes"/>
    </contour>
    <contour>
      <point x="189" y="120"/>
      <point x="104" y="168"/>
      <point x="104" y="349" type="curve" smooth="yes"/>
      <point x="104" y="529"/>
      <point x="189" y="577"/>
      <point x="297" y="577" type="curve" smooth="yes"/>
      <point x="404" y="577"/>
      <point x="488" y="529"/>
      <point x="488" y="349" type="curve" smooth="yes"/>
      <point x="488" y="168"/>
      <point x="404" y="120"/>
      <point x="297" y="120" type="curve" smooth="yes"/>
    </contour>
    <contour>
      <point x="370" y="300" type="line"/>
      <point x="358" y="274"/>
      <point x="338" y="256"/>
      <point x="307" y="256" type="curve" smooth="yes"/>
      <point x="262" y="256"/>
      <point x="235" y="286"/>
      <point x="235" y="348" type="curve" smooth="yes"/>
      <point x="235" y="411"/>
      <point x="262" y="440"/>
      <point x="307" y="440" type="curve" smooth="yes"/>
      <point x="337" y="440"/>
      <point x="356" y="423"/>
      <point x="369" y="391" type="curve"/>
      <point x="430" y="422" type="line"/>
      <point x="407" y="471"/>
      <point x="370" y="502"/>
      <point x="309" y="502" type="curve" smooth="yes"/>
      <point x="228" y="502"/>
      <point x="164" y="462"/>
      <point x="164" y="348" type="curve" smooth="yes"/>
      <point x="164" y="235"/>
      <point x="228" y="194"/>
      <point x="309" y="194" type="curve" smooth="yes"/>
      <point x="370" y="194"/>
      <point x="408" y="225"/>
      <point x="431" y="270" type="curve"/>
    </contour>
  </outline>
</glyph>
<glyph name="registered" format="1">
  <advance width="600"/>
  <unicode hex="00AE"/>
  <outline>
    <contour>
      <point x="437" y="166"/>
      <point x="565" y="241"/>
      <point x="565" y="439" type="curve" smooth="yes"/>
      <point x="565" y="636"/>
      <point x="437" y="711"/>
      <point x="297" y="711" type="curve" smooth="yes"/>
      <point x="156" y="711"/>
      <point x="28" y="636"/>
      <point x="28" y="439" type="curve" smooth="yes"/>
      <point x="28" y="241"/>
      <point x="156" y="166"/>
      <point x="297" y="166" type="curve" smooth="yes"/>
    </contour>
    <contour>
      <point x="186" y="240"/>
      <point x="104" y="288"/>
      <point x="104" y="439" type="curve" smooth="yes"/>
      <point x="104" y="589"/>
      <point x="189" y="637"/>
      <point x="297" y="637" type="curve" smooth="yes"/>
      <point x="404" y="637"/>
      <point x="488" y="589"/>
      <point x="488" y="439" type="curve" smooth="yes"/>
      <point x="488" y="288"/>
      <point x="404" y="240"/>
      <point x="297" y="240" type="curve" smooth="yes"/>
    </contour>
    <contour>
      <point x="309" y="531" type="line" smooth="yes"/>
      <point x="340" y="531"/>
      <point x="348" y="517"/>
      <point x="348" y="497" type="curve" smooth="yes"/>
      <point x="348" y="473"/>
      <point x="340" y="460"/>
      <point x="309" y="460" type="curve" smooth="yes"/>
      <point x="262" y="460" type="line"/>
      <point x="262" y="531" type="line"/>
    </contour>
    <contour>
      <point x="352" y="406"/>
      <point x="410" y="420"/>
      <point x="410" y="499" type="curve" smooth="yes"/>
      <point x="410" y="573"/>
      <point x="352" y="585"/>
      <point x="305" y="585" type="curve" smooth="yes"/>
      <point x="201" y="585" type="line"/>
      <point x="201" y="294" type="line"/>
      <point x="262" y="294" type="line"/>
      <point x="262" y="406" type="line"/>
      <point x="305" y="406" type="line" smooth="yes"/>
    </contour>
    <contour>
      <point x="412" y="294" type="line"/>
      <point x="349" y="419" type="line"/>
      <point x="284" y="419" type="line"/>
      <point x="344" y="294" type="line"/>
    </contour>
  </outline>
</glyph>
<glyph name="macron" format="1">
  <advance width="600"/>
  <unicode hex="00AF"/>
  <outline>
    <contour>
      <point x="131" y="655" type="line"/>
      <point x="468" y="655" type="line"/>
      <point x="468" y="744" type="line"/>
      <point x="131" y="744" type="line"/>
    </contour>
  </outline>
</glyph>
<glyph name="degree" format="1">
  <advance width="600"/>
  <unicode hex="00B0"/>
  <outline>
    <contour>
      <point x="339" y="492"/>
      <point x="407" y="560"/>
      <point x="407" y="644" type="curve" smooth="yes"/>
      <point x="407" y="727"/>
      <point x="339" y="795"/>
      <point x="256" y="795" type="curve" smooth="yes"/>
      <point x="172" y="795"/>
      <point x="104" y="727"/>
      <point x="104" y="644" type="curve" smooth="yes"/>
      <point x="104" y="560"/>
      <point x="172" y="492"/>
      <point x="256" y="492" type="curve" smooth="yes"/>
    </contour>
    <contour>
      <point x="220" y="580"/>
      <point x="192" y="608"/>
      <point x="192" y="644" type="curve" smooth="yes"/>
      <point x="192" y="679"/>
      <point x="220" y="707"/>
      <point x="256" y="707" type="curve" smooth="yes"/>
      <point x="291" y="707"/>
      <point x="319" y="679"/>
      <point x="319" y="644" type="curve" smooth="yes"/>
      <point x="319" y="608"/>
      <point x="291" y="580"/>
      <point x="256" y="580" type="curve" smooth="yes"/>
    </contour>
  </outline>
</glyph>
<glyph name="plusminus" format="1">
  <advance width="600"/>
  <unicode hex="00B1"/>
  <outline>
    <contour>
      <point x="99" y="329" type="line"/>
      <point x="506" y="329" type="line"/>
      <point x="506" y="417" type="line"/>
      <point x="99" y="417" type="line"/>
    </contour>
    <contour>
      <point x="357" y="219" type="line"/>
      <point x="357" y="526" type="line"/>
      <point x="249" y="526" type="line"/>
      <point x="249" y="219" type="line"/>
    </contour>
    <contour>
      <point x="99" y="81" type="line"/>
      <point x="506" y="81" type="line"/>
      <point x="506" y="169" type="line"/>
      <point x="99" y="169" type="line"/>
    </contour>
  </outline>
</glyph>
<glyph name="acute" format="1">
  <advance width="600"/>
  <unicode hex="00B4"/>
  <outline>
    <contour>
      <point x="293" y="609" type="line"/>
      <point x="441" y="754" type="line"/>
      <point x="288" y="754" type="line"/>
      <point x="181" y="609" type="line"/>
    </contour>
  </outline>
</glyph>
<glyph name="paragraph" format="1">
  <advance width="600"/>
  <unicode hex="00B6"/>
  <outline>
    <contour>
      <point x="248" y="302" type="line"/>
      <point x="248" y="-120" type="line"/>
      <point x="349" y="-120" type="line"/>
      <point x="349" y="700" type="line"/>
      <point x="245" y="700" type="line" smooth="yes"/>
      <point x="151" y="700"/>
      <point x="37" y="645"/>
      <point x="37" y="505" type="curve" smooth="yes"/>
      <point x="37" y="355"/>
      <point x="151" y="302"/>
      <point x="225" y="302" type="curve" smooth="yes"/>
    </contour>
    <contour>
      <point x="522" y="-120" type="line"/>
      <point x="522" y="700" type="line"/>
      <point x="422" y="700" type="line"/>
      <point x="422" y="-120" type="line"/>
    </contour>
    <contour>
      <point x="278" y="605" type="line"/>
      <point x="486" y="605" type="line"/>
      <point x="486" y="700" type="line"/>
      <point x="278" y="700" type="line"/>
    </contour>
  </outline>
</glyph>
<glyph name="cedilla" format="1">
  <advance width="600"/>
  <unicode hex="00B8"/>
  <outline>
    <contour>
      <point x="201" y="-77" type="line"/>
      <point x="282" y="-95" type="line"/>
      <point x="325" y="0" type="line"/>
      <point x="227" y="0" type="line"/>
    </contour>
    <contour>
      <point x="292" y="-79"/>
      <point x="323" y="-82"/>
      <point x="322" y="-103" type="curve" smooth="yes"/>
      <point x="321" y="-130"/>
      <point x="258" y="-135"/>
      <point x="187" y="-123" type="curve"/>
      <point x="160" y="-192" type="line"/>
      <point x="275" y="-219"/>
      <point x="426" y="-190"/>
      <point x="428" y="-95" type="curve" smooth="yes"/>
      <point x="429" y="-23"/>
      <point x="320" y="-21"/>
      <point x="298" y="-47" type="curve"/>
      <point x="282" y="-95" type="line"/>
    </contour>
  </outline>
</glyph>
<glyph name="AE" format="1">
  <advance width="600"/>
  <unicode hex="00C6"/>
  <outline>
    <contour>
      <point x="405" y="0" type="line"/>
      <point x="405" y="700" type="line"/>
      <point x="285" y="700" type="line"/>
      <point x="285" y="0" type="line"/>
    </contour>
    <contour>
      <point x="347" y="0" type="line"/>
      <point x="587" y="0" type="line"/>
      <point x="587" y="100" type="line"/>
      <point x="347" y="100" type="line"/>
    </contour>
    <contour>
      <point x="347" y="294" type="line"/>
      <point x="543" y="294" type="line"/>
      <point x="543" y="394" type="line"/>
      <point x="347" y="394" type="line"/>
    </contour>
    <contour>
      <point x="347" y="600" type="line"/>
      <point x="587" y="600" type="line"/>
      <point x="587" y="700" type="line"/>
      <point x="347" y="700" type="line"/>
    </contour>
    <contour>
      <point x="-10" y="0" type="line"/>
      <point x="116" y="0" type="line"/>
      <point x="324" y="700" type="line"/>
      <point x="204" y="700" type="line"/>
    </contour>
    <contour>
      <point x="208" y="600" type="line"/>
      <point x="325" y="600" type="line"/>
      <point x="343" y="700" type="line"/>
      <point x="225" y="700" type="line"/>
    </contour>
    <contour>
      <point x="123" y="197" type="line"/>
      <point x="335" y="197" type="line"/>
      <point x="352" y="297" type="line"/>
      <point x="140" y="297" type="line"/>
    </contour>
  </outline>
</glyph>
<glyph name="Thorn" format="1">
  <advance width="600"/>
  <unicode hex="00DE"/>
  <outline>
    <contour>
      <point x="212" y="700" type="line"/>
      <point x="92" y="700" type="line"/>
      <point x="92" y="0" type="line"/>
      <point x="212" y="0" type="line"/>
    </contour>
    <contour>
      <point x="170" y="128" type="line"/>
      <point x="286" y="128" type="line" smooth="yes"/>
      <point x="370" y="128"/>
      <point x="519" y="146"/>
      <point x="519" y="367" type="curve" smooth="yes"/>
      <point x="519" y="578"/>
      <point x="370" y="588"/>
      <point x="286" y="588" type="curve" smooth="yes"/>
      <point x="168" y="588" type="line"/>
      <point x="168" y="488" type="line"/>
      <point x="286" y="488" type="line"/>
      <point x="351" y="488"/>
      <point x="398" y="483"/>
      <point x="398" y="367" type="curve" smooth="yes"/>
      <point x="398" y="241"/>
      <point x="351" y="228"/>
      <point x="286" y="228" type="curve" smooth="yes"/>
      <point x="170" y="228" type="line"/>
    </contour>
  </outline>
</glyph>
<glyph name="germandbls" format="1">
  <advance width="600"/>
  <unicode hex="00DF"/>
  <outline>
    <contour>
      <point x="172" y="0" type="line"/>
      <point x="172" y="502" type="line"/>
      <point x="52" y="519" type="line"/>
      <point x="52" y="0" type="line"/>
    </contour>
    <contour>
      <point x="223" y="2" type="line"/>
      <point x="256" y="-7"/>
      <point x="291" y="-11"/>
      <point x="323" y="-11" type="curve" smooth="yes"/>
      <point x="444" y="-11"/>
      <point x="572" y="48"/>
      <point x="572" y="197" type="curve"/>
      <point x="448" y="197" type="line"/>
      <point x="448" y="120"/>
      <point x="403" y="90"/>
      <point x="323" y="90" type="curve" smooth="yes"/>
      <point x="296" y="90"/>
      <point x="270" y="95"/>
      <point x="247" y="104" type="curve"/>
    </contour>
    <contour>
      <point x="522" y="550" type="line"/>
      <point x="522" y="668"/>
      <point x="405" y="726"/>
      <point x="297" y="726" type="curve" smooth="yes"/>
      <point x="189" y="726"/>
      <point x="52" y="671"/>
      <point x="52" y="519" type="curve"/>
      <point x="172" y="502" type="line"/>
      <point x="172" y="590"/>
      <point x="233" y="625"/>
      <point x="297" y="625" type="curve" smooth="yes"/>
      <point x="354" y="625"/>
      <point x="397" y="607"/>
      <point x="397" y="546" type="curve"/>
    </contour>
    <contour>
      <point x="397" y="546" type="line"/>
      <point x="397" y="467"/>
      <point x="296" y="483"/>
      <point x="296" y="391" type="curve" smooth="yes"/>
      <point x="296" y="299"/>
      <point x="448" y="302"/>
      <point x="448" y="197" type="curve"/>
      <point x="572" y="197" type="line"/>
      <point x="572" y="350"/>
      <point x="418" y="354"/>
      <point x="418" y="391" type="curve" smooth="yes"/>
      <point x="418" y="428"/>
      <point x="522" y="436"/>
      <point x="522" y="550" type="curve"/>
    </contour>
  </outline>
</glyph>
<glyph name="ae" format="1">
  <advance width="600"/>
  <unicode hex="00E6"/>
  <outline>
    <contour>
      <point x="307" y="-11"/>
      <point x="311" y="76"/>
      <point x="311" y="76" type="curve"/>
      <point x="266" y="151" type="line"/>
      <point x="259" y="117"/>
      <point x="243" y="89"/>
      <point x="195" y="89" type="curve"/>
      <point x="159" y="89"/>
      <point x="121" y="102"/>
      <point x="121" y="153" type="curve"/>
      <point x="12" y="153" type="line"/>
      <point x="12" y="41"/>
      <point x="79" y="-11"/>
      <point x="178" y="-11" type="curve"/>
    </contour>
    <contour>
      <point x="121" y="153" type="line"/>
      <point x="121" y="213"/>
      <point x="177" y="215"/>
      <point x="232" y="215" type="curve"/>
      <point x="207" y="317" type="line"/>
      <point x="97" y="317"/>
      <point x="12" y="264"/>
      <point x="12" y="153" type="curve"/>
    </contour>
    <contour>
      <point x="320" y="215" type="line"/>
      <point x="320" y="317" type="line"/>
      <point x="207" y="317" type="line"/>
      <point x="232" y="215" type="line"/>
    </contour>
    <contour>
      <point x="339" y="346" type="line"/>
      <point x="339" y="437"/>
      <point x="281" y="512"/>
      <point x="195" y="512" type="curve"/>
      <point x="116" y="512"/>
      <point x="56" y="486"/>
      <point x="6" y="448" type="curve"/>
      <point x="76" y="370" type="line"/>
      <point x="100" y="392"/>
      <point x="143" y="411"/>
      <point x="190" y="411" type="curve"/>
      <point x="233" y="411"/>
      <point x="252" y="387"/>
      <point x="252" y="332" type="curve"/>
    </contour>
    <contour>
      <point x="349" y="209" type="line"/>
      <point x="349" y="352" type="line"/>
      <point x="252" y="332" type="line"/>
      <point x="252" y="209" type="line"/>
    </contour>
    <contour>
      <point x="494" y="149" type="line"/>
      <point x="485" y="123"/>
      <point x="470" y="90"/>
      <point x="434" y="90" type="curve" smooth="yes"/>
      <point x="389" y="90"/>
      <point x="364" y="121"/>
      <point x="364" y="251" type="curve" smooth="yes"/>
      <point x="364" y="381"/>
      <point x="377" y="411"/>
      <point x="431" y="411" type="curve" smooth="yes"/>
      <point x="480" y="411"/>
      <point x="483" y="354"/>
      <point x="483" y="315" type="curve"/>
      <point x="590" y="215" type="line"/>
      <point x="600" y="385"/>
      <point x="560" y="512"/>
      <point x="439" y="512" type="curve" smooth="yes"/>
      <point x="322" y="512"/>
      <point x="250" y="444"/>
      <point x="250" y="247" type="curve" smooth="yes"/>
      <point x="250" y="54"/>
      <point x="318" y="-11"/>
      <point x="432" y="-11" type="curve" smooth="yes"/>
      <point x="496" y="-11"/>
      <point x="558" y="25"/>
      <point x="588" y="106" type="curve"/>
    </contour>
    <contour>
      <point x="347" y="215" type="line"/>
      <point x="590" y="215" type="line"/>
      <point x="530" y="315" type="line"/>
      <point x="347" y="315" type="line"/>
    </contour>
  </outline>
</glyph>
<glyph name="eth" format="1">
  <advance width="600"/>
  <unicode hex="00F0"/>
  <outline>
    <contour>
      <point x="218" y="90"/>
      <point x="181" y="168"/>
      <point x="181" y="251" type="curve" smooth="yes"/>
      <point x="181" y="336"/>
      <point x="207" y="411"/>
      <point x="281" y="411" type="curve" smooth="yes"/>
      <point x="345" y="411"/>
      <point x="397" y="380"/>
      <point x="422" y="327" type="curve"/>
      <point x="475" y="373" type="line"/>
      <point x="427" y="463"/>
      <point x="371" y="512"/>
      <point x="280" y="512" type="curve" smooth="yes"/>
      <point x="143" y="512"/>
      <point x="57" y="417"/>
      <point x="57" y="251" type="curve" smooth="yes"/>
      <point x="57" y="87"/>
      <point x="155" y="-11"/>
      <point x="292" y="-11" type="curve"/>
      <point x="292" y="90" type="line"/>
    </contour>
    <contour>
      <point x="199" y="649" type="line"/>
      <point x="360" y="618"/>
      <point x="416" y="516"/>
      <point x="416" y="328" type="curve" smooth="yes"/>
      <point x="416" y="143"/>
      <point x="385" y="90"/>
      <point x="292" y="90" type="curve"/>
      <point x="292" y="-11" type="line"/>
      <point x="439" y="-11"/>
      <point x="540" y="62"/>
      <point x="540" y="328" type="curve" smooth="yes"/>
      <point x="540" y="589"/>
      <point x="409" y="687"/>
      <point x="240" y="724" type="curve"/>
    </contour>
    <contour>
      <point x="219" y="593" type="line"/>
      <point x="268" y="548" type="line"/>
      <point x="463" y="672" type="line"/>
      <point x="425" y="727" type="line"/>
    </contour>
  </outline>
</glyph>
<glyph name="divide" format="1">
  <advance width="600"/>
  <unicode hex="00F7"/>
  <outline>
    <contour>
      <point x="105" y="254" type="line"/>
      <point x="500" y="254" type="line"/>
      <point x="500" y="354" type="line"/>
      <point x="105" y="354" type="line"/>
    </contour>
    <contour>
      <point x="335" y="72"/>
      <point x="364" y="102"/>
      <point x="364" y="139" type="curve" smooth="yes"/>
      <point x="364" y="175"/>
      <point x="335" y="205"/>
      <point x="298" y="205" type="curve" smooth="yes"/>
      <point x="261" y="205"/>
      <point x="232" y="175"/>
      <point x="232" y="139" type="curve" smooth="yes"/>
      <point x="232" y="102"/>
      <point x="261" y="72"/>
      <point x="298" y="72" type="curve" smooth="yes"/>
    </contour>
    <contour>
      <point x="335" y="406"/>
      <point x="364" y="436"/>
      <point x="364" y="473" type="curve" smooth="yes"/>
      <point x="364" y="509"/>
      <point x="335" y="539"/>
      <point x="298" y="539" type="curve" smooth="yes"/>
      <point x="261" y="539"/>
      <point x="232" y="509"/>
      <point x="232" y="473" type="curve" smooth="yes"/>
      <point x="232" y="436"/>
      <point x="261" y="406"/>
      <point x="298" y="406" type="curve" smooth="yes"/>
    </contour>
  </outline>
</glyph>
<glyph name="thorn" format="1">
  <advance width="600"/>
  <unicode hex="00FE"/>
  <outline>
    <contour>
      <point x="193" y="-200" type="line"/>
      <point x="193" y="800" type="line"/>
      <point x="74" y="800" type="line"/>
      <point x="74" y="-200" type="line"/>
    </contour>
    <contour>
      <point x="182" y="304" type="line"/>
      <point x="195" y="337"/>
      <point x="233" y="410"/>
      <point x="315" y="410" type="curve" smooth="yes"/>
      <point x="398" y="410"/>
      <point x="423" y="362"/>
      <point x="423" y="251" type="curve"/>
      <point x="543" y="251" type="line"/>
      <point x="543" y="434"/>
      <point x="469" y="511"/>
      <point x="339" y="511" type="curve" smooth="yes"/>
      <point x="212" y="511"/>
      <point x="135" y="414"/>
      <point x="135" y="302" type="curve"/>
    </contour>
    <contour>
      <point x="135" y="98"/>
      <point x="202" y="-11"/>
      <point x="329" y="-11" type="curve" smooth="yes"/>
      <point x="459" y="-11"/>
      <point x="543" y="68"/>
      <point x="543" y="251" type="curve"/>
      <point x="423" y="251" type="line"/>
      <point x="423" y="140"/>
      <point x="388" y="90"/>
      <point x="305" y="90" type="curve" smooth="yes"/>
      <point x="223" y="90"/>
      <point x="185" y="165"/>
      <point x="182" y="208" type="curve"/>
      <point x="135" y="210" type="line"/>
    </contour>
  </outline>
</glyph>
<glyph name="aogonek" format="1">
  <advance width="600"/>
  <unicode hex="0105"/>
  <outline>
    <contour>
      <point x="533" y="0" type="line"/>
      <point x="576" y="41" type="line"/>
      <point x="566" y="52" type="line"/>
      <point x="439" y="0" type="line"/>
    </contour>
    <component base="a"/>
    <component base="ogonekcomb" xOffset="162"/>
  </outline>
</glyph>
<glyph name="idotless" format="1">
  <advance width="600"/>
  <unicode hex="0131"/>
  <outline>
    <contour>
      <point x="110" y="400" type="line"/>
      <point x="249" y="400" type="line"/>
      <point x="249" y="500" type="line"/>
      <point x="110" y="500" type="line"/>
    </contour>
    <contour>
      <point x="363" y="56" type="line"/>
      <point x="363" y="500" type="line"/>
      <point x="244" y="500" type="line"/>
      <point x="244" y="31" type="line"/>
    </contour>
    <contour>
      <point x="244" y="0" type="line"/>
      <point x="488" y="0" type="line"/>
      <point x="488" y="100" type="line"/>
      <point x="244" y="100" type="line"/>
    </contour>
  </outline>
</glyph>
<glyph name="Lslash" format="1">
  <advance width="600"/>
  <unicode hex="0141"/>
  <outline>
    <contour>
      <point x="48" y="155" type="line"/>
      <point x="338" y="445" type="line"/>
      <point x="338" y="554" type="line"/>
      <point x="48" y="263" type="line"/>
    </contour>
    <component base="L"/>
  </outline>
</glyph>
<glyph name="lslash" format="1">
  <advance width="600"/>
  <unicode hex="0142"/>
  <outline>
    <contour>
      <point x="148" y="155" type="line"/>
      <point x="418" y="425" type="line"/>
      <point x="418" y="534" type="line"/>
      <point x="148" y="263" type="line"/>
    </contour>
    <component base="l"/>
  </outline>
</glyph>
<glyph name="Eng" format="1">
  <advance width="600"/>
  <unicode hex="014A"/>
  <outline>
    <contour>
      <point x="534" y="20" type="line"/>
      <point x="211" y="700" type="line"/>
      <point x="89" y="700" type="line"/>
      <point x="426" y="0" type="line"/>
    </contour>
    <contour>
      <point x="445" y="-192"/>
      <point x="534" y="-134"/>
      <point x="534" y="-12" type="curve"/>
      <point x="534" y="28" type="line"/>
      <point x="424" y="4" type="line"/>
      <point x="424" y="-64"/>
      <point x="397" y="-91"/>
      <point x="322" y="-91" type="curve"/>
      <point x="281" y="-91"/>
      <point x="238" y="-84"/>
      <point x="222" y="-78" type="curve"/>
      <point x="196" y="-178" type="line"/>
      <point x="220" y="-184"/>
      <point x="277" y="-192"/>
      <point x="329" y="-192" type="curve"/>
    </contour>
    <contour>
      <point x="187" y="0" type="line"/>
      <point x="187" y="700" type="line"/>
      <point x="68" y="700" type="line"/>
      <point x="68" y="0" type="line"/>
    </contour>
    <contour>
      <point x="534" y="311" type="line"/>
      <point x="466" y="700" type="line"/>
      <point x="415" y="411" type="line"/>
      <point x="483" y="0" type="line"/>
    </contour>
  </outline>
</glyph>
<glyph name="eng" format="1">
  <advance width="600"/>
  <unicode hex="014B"/>
  <outline>
    <contour>
      <point x="225" y="-183" type="line"/>
      <point x="249" y="-189"/>
      <point x="277" y="-192"/>
      <point x="309" y="-192" type="curve"/>
      <point x="425" y="-192"/>
      <point x="521" y="-130"/>
      <point x="521" y="-12" type="curve"/>
      <point x="521" y="22" type="line"/>
      <point x="401" y="4" type="line"/>
      <point x="401" y="-51"/>
      <point x="381" y="-88"/>
      <point x="302" y="-88" type="curve"/>
      <point x="281" y="-88"/>
      <point x="263" y="-86"/>
      <point x="251" y="-80" type="curve"/>
    </contour>
    <component base="n"/>
  </outline>
</glyph>
<glyph name="OE" format="1">
  <advance width="600"/>
  <unicode hex="0152"/>
  <outline>
    <contour>
      <point x="257" y="-11"/>
      <point x="290" y="-3"/>
      <point x="319" y="19" type="curve"/>
      <point x="269" y="116" type="line"/>
      <point x="254" y="98"/>
      <point x="239" y="90"/>
      <point x="221" y="90" type="curve" smooth="yes"/>
      <point x="173" y="90"/>
      <point x="138" y="133"/>
      <point x="138" y="348" type="curve" smooth="yes"/>
      <point x="138" y="562"/>
      <point x="173" y="605"/>
      <point x="221" y="605" type="curve" smooth="yes"/>
      <point x="240" y="605"/>
      <point x="254" y="598"/>
      <point x="269" y="578" type="curve"/>
      <point x="328" y="669" type="line"/>
      <point x="297" y="696"/>
      <point x="260" y="706"/>
      <point x="221" y="706" type="curve" smooth="yes"/>
      <point x="114" y="706"/>
      <point x="13" y="644"/>
      <point x="13" y="348" type="curve" smooth="yes"/>
      <point x="13" y="51"/>
      <point x="114" y="-11"/>
      <point x="221" y="-11" type="curve" smooth="yes"/>
    </contour>
    <contour>
      <point x="576" y="0" type="line"/>
      <point x="576" y="100" type="line"/>
      <point x="277" y="100" type="line"/>
      <point x="277" y="0" type="line"/>
    </contour>
    <contour>
      <point x="389" y="0" type="line"/>
      <point x="389" y="700" type="line"/>
      <point x="265" y="700" type="line"/>
      <point x="265" y="0" type="line"/>
    </contour>
    <contour>
      <point x="552" y="294" type="line"/>
      <point x="552" y="394" type="line"/>
      <point x="357" y="394" type="line"/>
      <point x="357" y="294" type="line"/>
    </contour>
    <contour>
      <point x="576" y="600" type="line"/>
      <point x="576" y="700" type="line"/>
      <point x="267" y="700" type="line"/>
      <point x="267" y="600" type="line"/>
    </contour>
  </outline>
</glyph>
<glyph name="oe" format="1">
  <advance width="600"/>
  <unicode hex="0153"/>
  <outline>
    <contour>
      <point x="300" y="-11"/>
      <point x="348" y="108"/>
      <point x="348" y="251" type="curve" smooth="yes"/>
      <point x="348" y="393"/>
      <point x="300" y="512"/>
      <point x="184" y="512" type="curve" smooth="yes"/>
      <point x="87" y="512"/>
      <point x="14" y="443"/>
      <point x="14" y="251" type="curve" smooth="yes"/>
      <point x="14" y="58"/>
      <point x="87" y="-11"/>
      <point x="184" y="-11" type="curve" smooth="yes"/>
    </contour>
    <contour>
      <point x="150" y="90"/>
      <point x="126" y="117"/>
      <point x="126" y="251" type="curve" smooth="yes"/>
      <point x="126" y="384"/>
      <point x="150" y="411"/>
      <point x="184" y="411" type="curve" smooth="yes"/>
      <point x="217" y="411"/>
      <point x="241" y="384"/>
      <point x="241" y="251" type="curve" smooth="yes"/>
      <point x="241" y="117"/>
      <point x="217" y="90"/>
      <point x="184" y="90" type="curve" smooth="yes"/>
    </contour>
    <contour>
      <point x="493" y="-11"/>
      <point x="554" y="25"/>
      <point x="584" y="106" type="curve"/>
      <point x="489" y="149" type="line"/>
      <point x="480" y="123"/>
      <point x="467" y="90"/>
      <point x="431" y="90" type="curve" smooth="yes"/>
      <point x="386" y="90"/>
      <point x="365" y="121"/>
      <point x="365" y="251" type="curve" smooth="yes"/>
      <point x="365" y="381"/>
      <point x="382" y="411"/>
      <point x="427" y="411" type="curve" smooth="yes"/>
      <point x="475" y="411"/>
      <point x="478" y="354"/>
      <point x="478" y="315" type="curve"/>
      <point x="585" y="215" type="line"/>
      <point x="595" y="385"/>
      <point x="552" y="512"/>
      <point x="431" y="512" type="curve" smooth="yes"/>
      <point x="308" y="512"/>
      <point x="250" y="416"/>
      <point x="250" y="247" type="curve" smooth="yes"/>
      <point x="250" y="82"/>
      <point x="304" y="-11"/>
      <point x="429" y="-11" type="curve" smooth="yes"/>
    </contour>
    <contour>
      <point x="585" y="215" type="line"/>
      <point x="525" y="315" type="line"/>
      <point x="348" y="315" type="line"/>
      <point x="348" y="215" type="line"/>
    </contour>
  </outline>
</glyph>
<glyph name="uogonek" format="1">
  <advance width="600"/>
  <unicode hex="0173"/>
  <outline>
    <contour>
      <point x="423" y="0" type="line"/>
      <point x="471" y="-12" type="line"/>
      <point x="471" y="23" type="line"/>
      <point x="438" y="6" type="line"/>
    </contour>
    <component base="u"/>
    <component base="ogonekcomb" xOffset="146"/>
  </outline>
</glyph>
<glyph name="circumflex" format="1">
  <advance width="600"/>
  <unicode hex="02C6"/>
  <outline>
    <contour>
      <point x="353" y="754" type="line"/>
      <point x="246" y="754" type="line"/>
      <point x="123" y="619" type="line"/>
      <point x="243" y="619" type="line"/>
      <point x="300" y="693" type="line"/>
      <point x="356" y="619" type="line"/>
      <point x="476" y="619" type="line"/>
    </contour>
  </outline>
</glyph>
<glyph name="caron" format="1">
  <advance width="600"/>
  <unicode hex="02C7"/>
  <outline>
    <contour>
      <point x="356" y="754" type="line"/>
      <point x="300" y="680" type="line"/>
      <point x="243" y="754" type="line"/>
      <point x="123" y="754" type="line"/>
      <point x="246" y="619" type="line"/>
      <point x="353" y="619" type="line"/>
      <point x="476" y="754" type="line"/>
    </contour>
  </outline>
</glyph>
<glyph name="breve" format="1">
  <advance width="600"/>
  <unicode hex="02D8"/>
  <outline>
    <contour>
      <point x="341" y="749" type="line"/>
      <point x="341" y="738"/>
      <point x="341" y="684"/>
      <point x="300" y="684" type="curve" smooth="yes"/>
      <point x="260" y="684"/>
      <point x="259" y="738"/>
      <point x="259" y="749" type="curve"/>
      <point x="168" y="749" type="line"/>
      <point x="168" y="687"/>
      <point x="203" y="616"/>
      <point x="299" y="616" type="curve" smooth="yes"/>
      <point x="395" y="616"/>
      <point x="432" y="687"/>
      <point x="432" y="749" type="curve"/>
    </contour>
  </outline>
</glyph>
<glyph name="dotaccent" format="1">
  <advance width="600"/>
  <unicode hex="02D9"/>
  <outline>
    <contour>
      <point x="334" y="632"/>
      <point x="366" y="664"/>
      <point x="366" y="704" type="curve" smooth="yes"/>
      <point x="366" y="745"/>
      <point x="334" y="777"/>
      <point x="294" y="777" type="curve" smooth="yes"/>
      <point x="254" y="777"/>
      <point x="222" y="745"/>
      <point x="222" y="704" type="curve" smooth="yes"/>
      <point x="222" y="664"/>
      <point x="254" y="632"/>
      <point x="294" y="632" type="curve" smooth="yes"/>
    </contour>
  </outline>
</glyph>
<glyph name="ring" format="1">
  <advance width="600"/>
  <unicode hex="02DA"/>
  <outline>
    <contour>
      <point x="354" y="558"/>
      <point x="402" y="604"/>
      <point x="402" y="663" type="curve" smooth="yes"/>
      <point x="402" y="720"/>
      <point x="354" y="767"/>
      <point x="298" y="767" type="curve" smooth="yes"/>
      <point x="240" y="767"/>
      <point x="192" y="720"/>
      <point x="192" y="663" type="curve" smooth="yes"/>
      <point x="192" y="604"/>
      <point x="240" y="558"/>
      <point x="298" y="558" type="curve" smooth="yes"/>
    </contour>
    <contour>
      <point x="277" y="626"/>
      <point x="261" y="641"/>
      <point x="261" y="663" type="curve" smooth="yes"/>
      <point x="261" y="683"/>
      <point x="277" y="698"/>
      <point x="298" y="698" type="curve" smooth="yes"/>
      <point x="318" y="698"/>
      <point x="334" y="683"/>
      <point x="334" y="663" type="curve" smooth="yes"/>
      <point x="334" y="641"/>
      <point x="318" y="626"/>
      <point x="298" y="626" type="curve" smooth="yes"/>
    </contour>
  </outline>
</glyph>
<glyph name="ogonek" format="1">
  <advance width="600"/>
  <unicode hex="02DB"/>
  <outline>
    <contour>
      <point x="276" y="0" type="line" smooth="yes"/>
      <point x="276" y="0"/>
      <point x="180" y="-35"/>
      <point x="180" y="-110" type="curve" smooth="yes"/>
      <point x="180" y="-210"/>
      <point x="329" y="-215"/>
      <point x="420" y="-187" type="curve"/>
      <point x="385" y="-107" type="line"/>
      <point x="365" y="-112"/>
      <point x="307" y="-124"/>
      <point x="307" y="-80" type="curve" smooth="yes"/>
      <point x="307" y="-37"/>
      <point x="371" y="0"/>
      <point x="371" y="0" type="curve" smooth="yes"/>
    </contour>
  </outline>
</glyph>
<glyph name="tilde" format="1">
  <advance width="600"/>
  <unicode hex="02DC"/>
  <outline>
    <contour>
      <point x="93" y="700"/>
      <point x="141" y="766"/>
      <point x="218" y="766" type="curve" smooth="yes"/>
      <point x="298" y="766"/>
      <point x="319" y="708"/>
      <point x="363" y="708" type="curve" smooth="yes"/>
      <point x="408" y="708"/>
      <point x="438" y="756"/>
      <point x="438" y="756" type="curve"/>
      <point x="498" y="701" type="line"/>
      <point x="492" y="692"/>
      <point x="444" y="627"/>
      <point x="367" y="627" type="curve" smooth="yes"/>
      <point x="287" y="627"/>
      <point x="266" y="684"/>
      <point x="221" y="684" type="curve" smooth="yes"/>
      <point x="176" y="684"/>
      <point x="149" y="636"/>
      <point x="149" y="636" type="curve"/>
      <point x="88" y="691" type="line"/>
    </contour>
  </outline>
</glyph>
<glyph name="hungarumlaut" format="1">
  <advance width="600"/>
  <unicode hex="02DD"/>
  <outline>
    <contour>
      <point x="249" y="609" type="line"/>
      <point x="336" y="754" type="line"/>
      <point x="218" y="754" type="line"/>
      <point x="157" y="609" type="line"/>
    </contour>
    <contour>
      <point x="391" y="609" type="line"/>
      <point x="516" y="754" type="line"/>
      <point x="392" y="754" type="line"/>
      <point x="304" y="609" type="line"/>
    </contour>
  </outline>
</glyph>
<glyph name="strokeshortcomb" format="1">
  <advance width="600"/>
  <unicode hex="0335"/>
  <outline>
    <contour>
      <point x="139" y="315" type="line"/>
      <point x="455" y="315" type="line"/>
      <point x="455" y="393" type="line"/>
      <point x="139" y="393" type="line"/>
    </contour>
  </outline>
</glyph>
<glyph name="strokelongcomb" format="1">
  <advance width="600"/>
  <unicode hex="0336"/>
  <outline>
    <contour>
      <point x="65" y="311" type="line"/>
      <point x="533" y="311" type="line"/>
      <point x="533" y="397" type="line"/>
      <point x="65" y="397" type="line"/>
    </contour>
  </outline>
</glyph>
<glyph name="slashshortcomb" format="1">
  <advance width="600"/>
  <unicode hex="0337"/>
  <outline>
    <contour>
      <point x="434" y="543" type="line"/>
      <point x="41" y="-42" type="line"/>
      <point x="138" y="-42" type="line"/>
      <point x="531" y="543" type="line"/>
    </contour>
  </outline>
</glyph>
<glyph name="slashlongcomb" format="1">
  <advance width="600"/>
  <unicode hex="0338"/>
  <outline>
    <contour>
      <point x="488" y="736" type="line"/>
      <point x="11" y="-42" type="line"/>
      <point x="108" y="-42" type="line"/>
      <point x="585" y="736" type="line"/>
    </contour>
  </outline>
</glyph>
<glyph name="endash" format="1">
  <advance width="600"/>
  <unicode hex="2013"/>
  <outline>
    <contour>
      <point x="101" y="254" type="line"/>
      <point x="489" y="254" type="line"/>
      <point x="489" y="354" type="line"/>
      <point x="101" y="354" type="line"/>
    </contour>
  </outline>
</glyph>
<glyph name="emdash" format="1">
  <advance width="600"/>
  <unicode hex="2014"/>
  <outline>
    <contour>
      <point x="22" y="254" type="line"/>
      <point x="576" y="254" type="line"/>
      <point x="576" y="354" type="line"/>
      <point x="22" y="354" type="line"/>
    </contour>
  </outline>
</glyph>
<glyph name="quoteleft" format="1">
  <advance width="600"/>
  <unicode hex="2018"/>
  <outline>
    <contour>
      <point x="254" y="677"/>
      <point x="221" y="643"/>
      <point x="221" y="601" type="curve" smooth="yes"/>
      <point x="221" y="559"/>
      <point x="254" y="525"/>
      <point x="297" y="525" type="curve" smooth="yes"/>
      <point x="340" y="525"/>
      <point x="373" y="559"/>
      <point x="373" y="601" type="curve" smooth="yes"/>
      <point x="373" y="643"/>
      <point x="340" y="677"/>
      <point x="297" y="677" type="curve" smooth="yes"/>
    </contour>
    <contour>
      <point x="349" y="757" type="line"/>
      <point x="289" y="783" type="line"/>
      <point x="227" y="631" type="line"/>
      <point x="312" y="640" type="line"/>
    </contour>
  </outline>
</glyph>
<glyph name="quoteright" format="1">
  <advance width="600"/>
  <unicode hex="2019"/>
  <outline>
    <contour>
      <point x="347" y="631"/>
      <point x="380" y="665"/>
      <point x="380" y="707" type="curve" smooth="yes"/>
      <point x="380" y="749"/>
      <point x="347" y="783"/>
      <point x="304" y="783" type="curve" smooth="yes"/>
      <point x="261" y="783"/>
      <point x="227" y="749"/>
      <point x="227" y="707" type="curve" smooth="yes"/>
      <point x="227" y="665"/>
      <point x="261" y="631"/>
      <point x="304" y="631" type="curve" smooth="yes"/>
    </contour>
    <contour>
      <point x="252" y="551" type="line"/>
      <point x="312" y="525" type="line"/>
      <point x="374" y="677" type="line"/>
      <point x="289" y="668" type="line"/>
    </contour>
  </outline>
</glyph>
<glyph name="quotedblleft" format="1">
  <advance width="600"/>
  <unicode hex="201C"/>
  <outline>
    <contour>
      <point x="256" y="645" type="line"/>
      <point x="293" y="762" type="line"/>
      <point x="232" y="788" type="line"/>
      <point x="171" y="636" type="line"/>
    </contour>
    <contour>
      <point x="477" y="530"/>
      <point x="511" y="564"/>
      <point x="511" y="606" type="curve" smooth="yes"/>
      <point x="511" y="648"/>
      <point x="477" y="682"/>
      <point x="434" y="682" type="curve" smooth="yes"/>
      <point x="391" y="682"/>
      <point x="358" y="648"/>
      <point x="358" y="606" type="curve" smooth="yes"/>
      <point x="358" y="564"/>
      <point x="391" y="530"/>
      <point x="434" y="530" type="curve" smooth="yes"/>
    </contour>
    <contour>
      <point x="449" y="645" type="line"/>
      <point x="486" y="762" type="line"/>
      <point x="426" y="788" type="line"/>
      <point x="364" y="636" type="line"/>
    </contour>
    <contour>
      <point x="284" y="530"/>
      <point x="317" y="564"/>
      <point x="317" y="606" type="curve" smooth="yes"/>
      <point x="317" y="648"/>
      <point x="284" y="682"/>
      <point x="241" y="682" type="curve" smooth="yes"/>
      <point x="198" y="682"/>
      <point x="164" y="648"/>
      <point x="164" y="606" type="curve" smooth="yes"/>
      <point x="164" y="564"/>
      <point x="198" y="530"/>
      <point x="241" y="530" type="curve" smooth="yes"/>
    </contour>
  </outline>
</glyph>
<glyph name="quotedblright" format="1">
  <advance width="600"/>
  <unicode hex="201D"/>
  <outline>
    <contour>
      <point x="415" y="634"/>
      <point x="448" y="668"/>
      <point x="448" y="711" type="curve" smooth="yes"/>
      <point x="448" y="752"/>
      <point x="415" y="786"/>
      <point x="372" y="786" type="curve" smooth="yes"/>
      <point x="329" y="786"/>
      <point x="295" y="752"/>
      <point x="295" y="711" type="curve" smooth="yes"/>
      <point x="295" y="668"/>
      <point x="329" y="634"/>
      <point x="372" y="634" type="curve" smooth="yes"/>
    </contour>
    <contour>
      <point x="245" y="680" type="line"/>
      <point x="160" y="671" type="line"/>
      <point x="123" y="554" type="line"/>
      <point x="183" y="528" type="line"/>
    </contour>
    <contour>
      <point x="218" y="634"/>
      <point x="251" y="668"/>
      <point x="251" y="711" type="curve" smooth="yes"/>
      <point x="251" y="752"/>
      <point x="218" y="786"/>
      <point x="175" y="786" type="curve" smooth="yes"/>
      <point x="132" y="786"/>
      <point x="99" y="752"/>
      <point x="99" y="711" type="curve" smooth="yes"/>
      <point x="99" y="668"/>
      <point x="132" y="634"/>
      <point x="175" y="634" type="curve" smooth="yes"/>
    </contour>
    <contour>
      <point x="442" y="680" type="line"/>
      <point x="357" y="671" type="line"/>
      <point x="320" y="554" type="line"/>
      <point x="380" y="528" type="line"/>
    </contour>
  </outline>
</glyph>
<glyph name="dagger" format="1">
  <advance width="600"/>
  <unicode hex="2020"/>
  <outline>
    <contour>
      <point x="354" y="0" type="line"/>
      <point x="354" y="680" type="line"/>
      <point x="243" y="680" type="line"/>
      <point x="243" y="0" type="line"/>
    </contour>
    <contour>
      <point x="117" y="400" type="line"/>
      <point x="482" y="400" type="line"/>
      <point x="482" y="500" type="line"/>
      <point x="117" y="500" type="line"/>
    </contour>
  </outline>
</glyph>
<glyph name="daggerdbl" format="1">
  <advance width="600"/>
  <unicode hex="2021"/>
  <outline>
    <contour>
      <point x="117" y="159" type="line"/>
      <point x="482" y="159" type="line"/>
      <point x="482" y="259" type="line"/>
      <point x="117" y="259" type="line"/>
    </contour>
    <component base="dagger"/>
  </outline>
</glyph>
<glyph name="bullet" format="1">
  <advance width="600"/>
  <unicode hex="2022"/>
  <outline>
    <contour>
      <point x="373" y="198"/>
      <point x="433" y="258"/>
      <point x="433" y="335" type="curve" smooth="yes"/>
      <point x="433" y="413"/>
      <point x="373" y="473"/>
      <point x="296" y="473" type="curve" smooth="yes"/>
      <point x="219" y="473"/>
      <point x="159" y="413"/>
      <point x="159" y="335" type="curve" smooth="yes"/>
      <point x="159" y="258"/>
      <point x="219" y="198"/>
      <point x="296" y="198" type="curve" smooth="yes"/>
    </contour>
  </outline>
</glyph>
<glyph name="perthousand" format="1">
  <advance width="600"/>
  <unicode hex="2030"/>
  <outline>
    <contour>
      <point x="574" y="532" type="line"/>
      <point x="523" y="600" type="line"/>
      <point x="8" y="281" type="line"/>
      <point x="59" y="213" type="line"/>
    </contour>
    <contour>
      <point x="248" y="3"/>
      <point x="297" y="32"/>
      <point x="297" y="111" type="curve" smooth="yes"/>
      <point x="297" y="188"/>
      <point x="248" y="217"/>
      <point x="194" y="217" type="curve" smooth="yes"/>
      <point x="138" y="217"/>
      <point x="90" y="188"/>
      <point x="90" y="111" type="curve" smooth="yes"/>
      <point x="90" y="32"/>
      <point x="138" y="3"/>
      <point x="194" y="3" type="curve" smooth="yes"/>
    </contour>
    <contour>
      <point x="174" y="60"/>
      <point x="160" y="71"/>
      <point x="160" y="111" type="curve" smooth="yes"/>
      <point x="160" y="147"/>
      <point x="174" y="160"/>
      <point x="194" y="160" type="curve" smooth="yes"/>
      <point x="211" y="160"/>
      <point x="227" y="147"/>
      <point x="227" y="111" type="curve" smooth="yes"/>
      <point x="227" y="71"/>
      <point x="211" y="60"/>
      <point x="194" y="60" type="curve" smooth="yes"/>
    </contour>
    <contour>
      <point x="498" y="3"/>
      <point x="547" y="32"/>
      <point x="547" y="111" type="curve" smooth="yes"/>
      <point x="547" y="188"/>
      <point x="498" y="217"/>
      <point x="443" y="217" type="curve" smooth="yes"/>
      <point x="388" y="217"/>
      <point x="340" y="188"/>
      <point x="340" y="111" type="curve" smooth="yes"/>
      <point x="340" y="32"/>
      <point x="388" y="3"/>
      <point x="443" y="3" type="curve" smooth="yes"/>
    </contour>
    <contour>
      <point x="424" y="60"/>
      <point x="410" y="71"/>
      <point x="410" y="111" type="curve" smooth="yes"/>
      <point x="410" y="147"/>
      <point x="424" y="160"/>
      <point x="443" y="160" type="curve" smooth="yes"/>
      <point x="461" y="160"/>
      <point x="477" y="147"/>
      <point x="477" y="111" type="curve" smooth="yes"/>
      <point x="477" y="71"/>
      <point x="461" y="60"/>
      <point x="443" y="60" type="curve" smooth="yes"/>
    </contour>
    <contour>
      <point x="249" y="469"/>
      <point x="298" y="498"/>
      <point x="298" y="577" type="curve" smooth="yes"/>
      <point x="298" y="654"/>
      <point x="249" y="683"/>
      <point x="194" y="683" type="curve" smooth="yes"/>
      <point x="139" y="683"/>
      <point x="91" y="654"/>
      <point x="91" y="577" type="curve" smooth="yes"/>
      <point x="91" y="498"/>
      <point x="139" y="469"/>
      <point x="194" y="469" type="curve" smooth="yes"/>
    </contour>
    <contour>
      <point x="175" y="526"/>
      <point x="161" y="537"/>
      <point x="161" y="577" type="curve" smooth="yes"/>
      <point x="161" y="613"/>
      <point x="175" y="626"/>
      <point x="194" y="626" type="curve" smooth="yes"/>
      <point x="212" y="626"/>
      <point x="228" y="613"/>
      <point x="228" y="577" type="curve" smooth="yes"/>
      <point x="228" y="537"/>
      <point x="212" y="526"/>
      <point x="194" y="526" type="curve" smooth="yes"/>
    </contour>
  </outline>
</glyph>
<glyph name="guilsinglleft" format="1">
  <advance width="600"/>
  <unicode hex="2039"/>
  <outline>
    <contour>
      <point x="230" y="248" type="line"/>
      <point x="431" y="474" type="line"/>
      <point x="375" y="530" type="line"/>
      <point x="149" y="341" type="line"/>
    </contour>
    <contour>
      <point x="375" y="57" type="line"/>
      <point x="431" y="113" type="line"/>
      <point x="230" y="340" type="line"/>
      <point x="149" y="246" type="line"/>
    </contour>
    <contour>
      <point x="149" y="246" type="line"/>
      <point x="213" y="246" type="line"/>
      <point x="213" y="341" type="line"/>
      <point x="149" y="341" type="line"/>
    </contour>
  </outline>
</glyph>
<glyph name="fraction" format="1">
  <advance width="600"/>
  <unicode hex="2044"/>
  <outline>
    <contour>
      <point x="467" y="800" type="line"/>
      <point x="28" y="-142" type="line"/>
      <point x="126" y="-142" type="line"/>
      <point x="565" y="800" type="line"/>
    </contour>
  </outline>
</glyph>
<glyph name="euro" format="1">
  <advance width="600"/>
  <unicode hex="20AC"/>
  <outline>
    <contour>
      <point x="441" y="-11"/>
      <point x="515" y="21"/>
      <point x="563" y="113" type="curve"/>
      <point x="470" y="167" type="line"/>
      <point x="440" y="103"/>
      <point x="395" y="90"/>
      <point x="360" y="90" type="curve" smooth="yes"/>
      <point x="285" y="90"/>
      <point x="221" y="138"/>
      <point x="221" y="348" type="curve" smooth="yes"/>
      <point x="221" y="557"/>
      <point x="285" y="605"/>
      <point x="360" y="605" type="curve" smooth="yes"/>
      <point x="394" y="605"/>
      <point x="438" y="593"/>
      <point x="468" y="531" type="curve"/>
      <point x="561" y="585" type="line"/>
      <point x="513" y="675"/>
      <point x="440" y="706"/>
      <point x="360" y="706" type="curve" smooth="yes"/>
      <point x="213" y="706"/>
      <point x="96" y="630"/>
      <point x="96" y="348" type="curve" smooth="yes"/>
      <point x="96" y="65"/>
      <point x="213" y="-11"/>
      <point x="360" y="-11" type="curve" smooth="yes"/>
    </contour>
    <contour>
      <point x="417" y="217" type="line"/>
      <point x="429" y="312" type="line"/>
      <point x="21" y="312" type="line"/>
      <point x="9" y="217" type="line"/>
    </contour>
    <contour>
      <point x="439" y="387" type="line"/>
      <point x="452" y="482" type="line"/>
      <point x="34" y="482" type="line"/>
      <point x="21" y="387" type="line"/>
    </contour>
  </outline>
</glyph>
<glyph name="trademark" format="1">
  <advance width="600"/>
  <unicode hex="2122"/>
  <outline>
    <contour>
      <point x="187" y="426" type="line"/>
      <point x="187" y="700" type="line"/>
      <point x="114" y="700" type="line"/>
      <point x="114" y="426" type="line"/>
    </contour>
    <contour>
      <point x="29" y="640" type="line"/>
      <point x="273" y="640" type="line"/>
      <point x="273" y="700" type="line"/>
      <point x="29" y="700" type="line"/>
    </contour>
    <contour>
      <point x="351" y="426" type="line"/>
      <point x="362" y="700" type="line"/>
      <point x="307" y="700" type="line"/>
      <point x="288" y="426" type="line"/>
    </contour>
    <contour>
      <point x="565" y="426" type="line"/>
      <point x="544" y="700" type="line"/>
      <point x="490" y="700" type="line"/>
      <point x="499" y="426" type="line"/>
    </contour>
    <contour>
      <point x="425" y="550" type="line"/>
      <point x="408" y="466" type="line"/>
      <point x="454" y="466" type="line"/>
      <point x="516" y="700" type="line"/>
      <point x="472" y="700" type="line"/>
    </contour>
    <contour>
      <point x="335" y="700" type="line"/>
      <point x="399" y="466" type="line"/>
      <point x="445" y="466" type="line"/>
      <point x="428" y="550" type="line"/>
      <point x="381" y="700" type="line"/>
    </contour>
  </outline>
</glyph>
<glyph name="upArrow" format="1">
  <advance width="600"/>
  <unicode hex="2191"/>
  <outline>
    <contour>
      <point x="335" y="70" type="line"/>
      <point x="335" y="353" type="line"/>
      <point x="250" y="353" type="line" smooth="yes"/>
      <point x="250" y="70" type="line"/>
    </contour>
    <contour>
      <point x="292" y="478" type="line"/>
      <point x="188" y="331" type="line"/>
      <point x="397" y="331" type="line"/>
    </contour>
  </outline>
</glyph>
<glyph name="emptyset" format="1">
  <advance width="600"/>
  <unicode hex="2205"/>
  <outline>
    <contour>
      <point x="463" y="-2"/>
      <point x="593" y="128"/>
      <point x="593" y="288" type="curve" smooth="yes"/>
      <point x="593" y="448"/>
      <point x="463" y="578"/>
      <point x="303" y="578" type="curve" smooth="yes"/>
      <point x="142" y="578"/>
      <point x="12" y="448"/>
      <point x="12" y="288" type="curve" smooth="yes"/>
      <point x="12" y="128"/>
      <point x="142" y="-2"/>
      <point x="303" y="-2" type="curve" smooth="yes"/>
    </contour>
    <contour>
      <point x="203" y="109"/>
      <point x="123" y="189"/>
      <point x="123" y="288" type="curve" smooth="yes"/>
      <point x="123" y="387"/>
      <point x="203" y="467"/>
      <point x="303" y="467" type="curve" smooth="yes"/>
      <point x="402" y="467"/>
      <point x="482" y="387"/>
      <point x="482" y="288" type="curve" smooth="yes"/>
      <point x="482" y="189"/>
      <point x="402" y="109"/>
      <point x="303" y="109" type="curve" smooth="yes"/>
    </contour>
    <contour>
      <point x="8" y="67" type="line"/>
      <point x="72" y="3" type="line"/>
      <point x="579" y="510" type="line"/>
      <point x="515" y="575" type="line"/>
    </contour>
  </outline>
</glyph>
<glyph name="minus" format="1">
  <advance width="600"/>
  <unicode hex="2212"/>
  <outline>
    <contour>
      <point x="105" y="254" type="line"/>
      <point x="500" y="254" type="line"/>
      <point x="500" y="354" type="line"/>
      <point x="105" y="354" type="line"/>
    </contour>
  </outline>
</glyph>
<glyph name="radical" format="1">
  <advance width="600"/>
  <unicode hex="221A"/>
  <outline>
    <contour>
      <point x="294" y="0" type="line"/>
      <point x="489" y="869" type="line"/>
      <point x="366" y="869" type="line"/>
      <point x="171" y="0" type="line"/>
    </contour>
    <contour>
      <point x="275" y="0" type="line"/>
      <point x="275" y="107" type="line"/>
      <point x="114" y="107" type="line"/>
      <point x="114" y="0" type="line"/>
    </contour>
    <contour>
      <point x="218" y="0" type="line"/>
      <point x="134" y="373" type="line"/>
      <point x="11" y="373" type="line"/>
      <point x="95" y="0" type="line"/>
    </contour>
    <contour>
      <point x="603" y="762" type="line"/>
      <point x="603" y="869" type="line"/>
      <point x="447" y="869" type="line"/>
      <point x="447" y="762" type="line"/>
    </contour>
  </outline>
</glyph>
<glyph name="infinity" format="1">
  <advance width="600"/>
  <unicode hex="221E"/>
  <outline>
    <contour>
      <point x="307" y="149"/>
      <point x="337" y="309"/>
      <point x="337" y="309" type="curve" smooth="yes"/>
      <point x="337" y="309"/>
      <point x="307" y="467"/>
      <point x="185" y="478" type="curve" smooth="yes"/>
      <point x="97" y="485"/>
      <point x="30" y="417"/>
      <point x="30" y="309" type="curve" smooth="yes"/>
      <point x="30" y="198"/>
      <point x="97" y="131"/>
      <point x="185" y="138" type="curve" smooth="yes"/>
    </contour>
    <contour>
      <point x="139" y="228"/>
      <point x="121" y="260"/>
      <point x="121" y="309" type="curve" smooth="yes"/>
      <point x="121" y="356"/>
      <point x="139" y="388"/>
      <point x="184" y="388" type="curve" smooth="yes"/>
      <point x="237" y="388"/>
      <point x="258" y="309"/>
      <point x="258" y="309" type="curve" smooth="yes"/>
      <point x="258" y="309"/>
      <point x="237" y="228"/>
      <point x="184" y="228" type="curve" smooth="yes"/>
    </contour>
    <contour>
      <point x="499" y="131"/>
      <point x="566" y="198"/>
      <point x="566" y="309" type="curve" smooth="yes"/>
      <point x="566" y="417"/>
      <point x="499" y="485"/>
      <point x="411" y="478" type="curve" smooth="yes"/>
      <point x="289" y="467"/>
      <point x="259" y="309"/>
      <point x="259" y="309" type="curve" smooth="yes"/>
      <point x="259" y="309"/>
      <point x="289" y="149"/>
      <point x="411" y="138" type="curve" smooth="yes"/>
    </contour>
    <contour>
      <point x="359" y="228"/>
      <point x="338" y="309"/>
      <point x="338" y="309" type="curve" smooth="yes"/>
      <point x="338" y="309"/>
      <point x="359" y="388"/>
      <point x="412" y="388" type="curve" smooth="yes"/>
      <point x="457" y="388"/>
      <point x="475" y="356"/>
      <point x="475" y="309" type="curve" smooth="yes"/>
      <point x="475" y="260"/>
      <point x="457" y="228"/>
      <point x="412" y="228" type="curve" smooth="yes"/>
    </contour>
  </outline>
</glyph>
<glyph name="approxequal" format="1">
  <advance width="600"/>
  <unicode hex="2248"/>
  <outline>
    <contour>
      <point x="74" y="418"/>
      <point x="134" y="471"/>
      <point x="212" y="471" type="curve" smooth="yes"/>
      <point x="305" y="471"/>
      <point x="314" y="403"/>
      <point x="366" y="403" type="curve" smooth="yes"/>
      <point x="418" y="403"/>
      <point x="474" y="445"/>
      <point x="474" y="445" type="curve"/>
      <point x="507" y="386" type="line"/>
      <point x="499" y="376"/>
      <point x="451" y="324"/>
      <point x="373" y="324" type="curve" smooth="yes"/>
      <point x="280" y="324"/>
      <point x="270" y="390"/>
      <point x="218" y="390" type="curve" smooth="yes"/>
      <point x="166" y="390"/>
      <point x="102" y="345"/>
      <point x="102" y="345" type="curve"/>
      <point x="69" y="407" type="line"/>
    </contour>
    <contour>
      <point x="74" y="244"/>
      <point x="134" y="298"/>
      <point x="212" y="298" type="curve" smooth="yes"/>
      <point x="305" y="298"/>
      <point x="314" y="230"/>
      <point x="366" y="230" type="curve" smooth="yes"/>
      <point x="418" y="230"/>
      <point x="474" y="272"/>
      <point x="474" y="272" type="curve"/>
      <point x="507" y="213" type="line"/>
      <point x="499" y="203"/>
      <point x="451" y="150"/>
      <point x="373" y="150" type="curve" smooth="yes"/>
      <point x="280" y="150"/>
      <point x="270" y="216"/>
      <point x="218" y="216" type="curve" smooth="yes"/>
      <point x="166" y="216"/>
      <point x="102" y="171"/>
      <point x="102" y="171" type="curve"/>
      <point x="69" y="233" type="line"/>
    </contour>
  </outline>
</glyph>
<glyph name="notequal" format="1">
  <advance width="600"/>
  <unicode hex="2260"/>
  <outline>
    <contour>
      <point x="237" y="80" type="line"/>
      <point x="457" y="535" type="line"/>
      <point x="351" y="535" type="line"/>
      <point x="132" y="80" type="line"/>
    </contour>
    <component base="equal"/>
  </outline>
</glyph>
<glyph name="greaterequal" format="1">
  <advance width="600"/>
  <unicode hex="2265"/>
  <outline>
    <contour>
      <point x="165" y="613" type="line"/>
      <point x="113" y="537" type="line"/>
      <point x="390" y="364" type="line"/>
      <point x="475" y="462" type="line"/>
    </contour>
    <contour>
      <point x="407" y="462" type="line"/>
      <point x="407" y="357" type="line"/>
      <point x="475" y="357" type="line"/>
      <point x="475" y="462" type="line"/>
    </contour>
    <contour>
      <point x="390" y="455" type="line"/>
      <point x="113" y="282" type="line"/>
      <point x="165" y="206" type="line"/>
      <point x="475" y="357" type="line"/>
    </contour>
    <contour>
      <point x="123" y="169" type="line"/>
      <point x="123" y="74" type="line"/>
      <point x="475" y="74" type="line"/>
      <point x="475" y="169" type="line"/>
    </contour>
  </outline>
</glyph>
<glyph name="lozenge" format="1">
  <advance width="600"/>
  <unicode hex="25CA"/>
  <outline>
    <contour>
      <point x="241" y="672" type="line"/>
      <point x="448" y="331" type="line"/>
      <point x="567" y="350" type="line"/>
      <point x="357" y="700" type="line"/>
    </contour>
    <contour>
      <point x="244" y="700" type="line"/>
      <point x="244" y="649" type="line"/>
      <point x="357" y="649" type="line"/>
      <point x="357" y="700" type="line"/>
    </contour>
    <contour>
      <point x="34" y="350" type="line"/>
      <point x="153" y="331" type="line"/>
      <point x="360" y="672" type="line"/>
      <point x="244" y="700" type="line"/>
    </contour>
    <contour>
      <point x="567" y="350" type="line"/>
      <point x="448" y="369" type="line"/>
      <point x="241" y="28" type="line"/>
      <point x="357" y="0" type="line"/>
    </contour>
    <contour>
      <point x="357" y="51" type="line"/>
      <point x="244" y="51" type="line"/>
      <point x="244" y="0" type="line"/>
      <point x="357" y="0" type="line"/>
    </contour>
    <contour>
      <point x="360" y="28" type="line"/>
      <point x="153" y="369" type="line"/>
      <point x="34" y="350" type="line"/>
      <point x="244" y="0" type="line"/>
    </contour>
  </outline>
</glyph>
<glyph name="G.ss01" format="1">
  <advance width="600"/>
  <outline>
    <contour>
      <point x="468" y="-11"/>
      <point x="558" y="90"/>
      <point x="558" y="303" type="curve"/>
      <point x="446" y="333" type="line"/>
      <point x="446" y="138"/>
      <point x="401" y="90"/>
      <point x="317" y="90" type="curve" smooth="yes"/>
      <point x="233" y="90"/>
      <point x="173" y="134"/>
      <point x="173" y="348" type="curve" smooth="yes"/>
      <point x="173" y="562"/>
      <point x="228" y="605"/>
      <point x="312" y="605" type="curve" smooth="yes"/>
      <point x="366" y="605"/>
      <point x="405" y="578"/>
      <point x="434" y="517" type="curve"/>
      <point x="543" y="576" type="line"/>
      <point x="495" y="671"/>
      <point x="412" y="706"/>
      <point x="312" y="706" type="curve" smooth="yes"/>
      <point x="161" y="706"/>
      <point x="48" y="635"/>
      <point x="48" y="348" type="curve" smooth="yes"/>
      <point x="48" y="60"/>
      <point x="166" y="-11"/>
      <point x="317" y="-11" type="curve" smooth="yes"/>
    </contour>
    <contour>
      <point x="558" y="294" type="line"/>
      <point x="558" y="394" type="line"/>
      <point x="317" y="394" type="line"/>
      <point x="317" y="294" type="line"/>
    </contour>
  </outline>
</glyph>
<glyph name="Q.ss01" format="1">
  <advance width="600"/>
  <outline>
    <contour>
      <point x="450" y="-11"/>
      <point x="558" y="60"/>
      <point x="558" y="348" type="curve" smooth="yes"/>
      <point x="558" y="635"/>
      <point x="450" y="706"/>
      <point x="295" y="706" type="curve" smooth="yes"/>
      <point x="139" y="706"/>
      <point x="31" y="635"/>
      <point x="31" y="348" type="curve" smooth="yes"/>
      <point x="31" y="60"/>
      <point x="139" y="-11"/>
      <point x="295" y="-11" type="curve" smooth="yes"/>
    </contour>
    <contour>
      <point x="590" y="-58" type="line"/>
      <point x="581" y="25"/>
      <point x="498" y="122"/>
      <point x="341" y="95" type="curve"/>
      <point x="358" y="-6" type="line"/>
      <point x="433" y="12"/>
      <point x="488" y="-63"/>
      <point x="501" y="-138" type="curve"/>
    </contour>
    <contour>
      <point x="211" y="90"/>
      <point x="156" y="142"/>
      <point x="156" y="348" type="curve" smooth="yes"/>
      <point x="156" y="553"/>
      <point x="211" y="605"/>
      <point x="295" y="605" type="curve" smooth="yes"/>
      <point x="378" y="605"/>
      <point x="433" y="553"/>
      <point x="433" y="348" type="curve" smooth="yes"/>
      <point x="433" y="142"/>
      <point x="378" y="90"/>
      <point x="295" y="90" type="curve" smooth="yes"/>
    </contour>
  </outline>
</glyph>
<glyph name="X.ss01" format="1">
  <advance width="600"/>
  <outline>
    <contour>
      <point x="247" y="371" type="line"/>
      <point x="43" y="0" type="line"/>
      <point x="176" y="0" type="line"/>
      <point x="350" y="332" type="line"/>
    </contour>
    <contour>
      <point x="350" y="332" type="line"/>
      <point x="555" y="700" type="line"/>
      <point x="423" y="700" type="line"/>
      <point x="247" y="371" type="line"/>
    </contour>
    <contour>
      <point x="423" y="0" type="line"/>
      <point x="555" y="0" type="line"/>
      <point x="351" y="371" type="line"/>
      <point x="248" y="332" type="line"/>
    </contour>
    <contour>
      <point x="176" y="700" type="line"/>
      <point x="43" y="700" type="line"/>
      <point x="248" y="332" type="line"/>
      <point x="351" y="371" type="line"/>
    </contour>
  </outline>
</glyph>
<glyph name="a.ss01" format="1">
  <advance width="600"/>
  <outline>
    <contour>
      <point x="508" y="369" type="line"/>
      <point x="508" y="460"/>
      <point x="429" y="512"/>
      <point x="303" y="512" type="curve"/>
      <point x="208" y="512"/>
      <point x="129" y="487"/>
      <point x="86" y="444" type="curve"/>
      <point x="162" y="367" type="line"/>
      <point x="187" y="395"/>
      <point x="231" y="411"/>
      <point x="296" y="411" type="curve"/>
      <point x="373" y="411"/>
      <point x="388" y="392"/>
      <point x="388" y="342" type="curve"/>
    </contour>
    <contour>
      <point x="410" y="-11"/>
      <point x="458" y="76"/>
      <point x="458" y="76" type="curve"/>
      <point x="407" y="157" type="line"/>
      <point x="392" y="117"/>
      <point x="344" y="89"/>
      <point x="289" y="89" type="curve"/>
      <point x="206" y="89"/>
      <point x="175" y="105"/>
      <point x="175" y="153" type="curve"/>
      <point x="56" y="153" type="line"/>
      <point x="56" y="41"/>
      <point x="129" y="-11"/>
      <point x="273" y="-11" type="curve"/>
    </contour>
    <contour>
      <point x="175" y="153" type="line"/>
      <point x="175" y="202"/>
      <point x="195" y="221"/>
      <point x="318" y="221" type="curve"/>
      <point x="293" y="316" type="line"/>
      <point x="131" y="316"/>
      <point x="56" y="264"/>
      <point x="56" y="153" type="curve"/>
    </contour>
    <contour>
      <point x="527" y="-11"/>
      <point x="556" y="-9"/>
      <point x="568" y="-6" type="curve"/>
      <point x="568" y="88" type="line"/>
      <point x="562" y="87"/>
      <point x="553" y="86"/>
      <point x="549" y="86" type="curve"/>
      <point x="517" y="86"/>
      <point x="508" y="102"/>
      <point x="508" y="146" type="curve"/>
      <point x="388" y="122" type="line"/>
      <point x="388" y="36"/>
      <point x="443" y="-11"/>
      <point x="514" y="-11" type="curve"/>
    </contour>
    <contour>
      <point x="471" y="221" type="line"/>
      <point x="471" y="316" type="line"/>
      <point x="293" y="316" type="line"/>
      <point x="318" y="221" type="line"/>
    </contour>
    <contour>
      <point x="508" y="146" type="line"/>
      <point x="508" y="298" type="line"/>
      <point x="388" y="294" type="line"/>
      <point x="388" y="122" type="line"/>
    </contour>
    <contour>
      <point x="508" y="209" type="line"/>
      <point x="508" y="369" type="line"/>
      <point x="388" y="342" type="line"/>
      <point x="388" y="207" type="line"/>
    </contour>
  </outline>
</glyph>
<glyph name="g.ss01" format="1">
  <advance width="600"/>
  <outline>
    <contour>
      <point x="569" y="503" type="line"/>
      <point x="501" y="503"/>
      <point x="429" y="456"/>
      <point x="443" y="367" type="curve"/>
      <point x="528" y="342" type="line"/>
      <point x="524" y="400"/>
      <point x="570" y="404"/>
      <point x="594" y="404" type="curve"/>
    </contour>
    <contour>
      <point x="410" y="149"/>
      <point x="528" y="188"/>
      <point x="528" y="331" type="curve" smooth="yes"/>
      <point x="528" y="473"/>
      <point x="420" y="512"/>
      <point x="301" y="512" type="curve" smooth="yes"/>
      <point x="181" y="512"/>
      <point x="73" y="473"/>
      <point x="73" y="331" type="curve" smooth="yes"/>
      <point x="73" y="188"/>
      <point x="181" y="149"/>
      <point x="301" y="149" type="curve" smooth="yes"/>
    </contour>
    <contour>
      <point x="227" y="249"/>
      <point x="197" y="270"/>
      <point x="197" y="331" type="curve" smooth="yes"/>
      <point x="197" y="391"/>
      <point x="221" y="412"/>
      <point x="301" y="412" type="curve" smooth="yes"/>
      <point x="380" y="412"/>
      <point x="404" y="396"/>
      <point x="404" y="331" type="curve" smooth="yes"/>
      <point x="404" y="270"/>
      <point x="374" y="249"/>
      <point x="301" y="249" type="curve" smooth="yes"/>
    </contour>
    <contour>
      <point x="274" y="-1" type="line"/>
      <point x="288" y="90" type="line"/>
      <point x="273" y="90" type="line" smooth="yes"/>
      <point x="195" y="90"/>
      <point x="214" y="142"/>
      <point x="237" y="170" type="curve"/>
      <point x="172" y="199" type="line"/>
      <point x="147" y="181"/>
      <point x="92" y="155"/>
      <point x="92" y="92" type="curve" smooth="yes"/>
      <point x="92" y="28"/>
      <point x="182" y="-1"/>
      <point x="260" y="-1" type="curve" smooth="yes"/>
    </contour>
    <contour>
      <point x="62" y="-156"/>
      <point x="159" y="-196"/>
      <point x="307" y="-196" type="curve"/>
      <point x="307" y="-101" type="line"/>
      <point x="241" y="-101"/>
      <point x="203" y="-92"/>
      <point x="188" y="-66" type="curve" smooth="yes"/>
      <point x="174" y="-41"/>
      <point x="188" y="-1"/>
      <point x="209" y="17" type="curve"/>
      <point x="132" y="45" type="line"/>
      <point x="107" y="27"/>
      <point x="62" y="-6"/>
      <point x="62" y="-69" type="curve" smooth="yes"/>
    </contour>
    <contour>
      <point x="554" y="46"/>
      <point x="491" y="90"/>
      <point x="378" y="90" type="curve"/>
      <point x="342" y="-1" type="line"/>
      <point x="426" y="-1"/>
      <point x="437" y="-18"/>
      <point x="430" y="-53" type="curve" smooth="yes"/>
      <point x="424" y="-89"/>
      <point x="375" y="-101"/>
      <point x="307" y="-101" type="curve"/>
      <point x="307" y="-196" type="line"/>
      <point x="468" y="-196"/>
      <point x="543" y="-137"/>
      <point x="548" y="-43" type="curve" smooth="yes"/>
    </contour>
    <contour>
      <point x="378" y="90" type="line"/>
      <point x="378" y="90"/>
      <point x="377" y="90"/>
      <point x="377" y="90" type="curve" smooth="yes"/>
      <point x="288" y="90" type="line"/>
      <point x="274" y="-1" type="line"/>
      <point x="342" y="-1" type="line"/>
    </contour>
  </outline>
</glyph>
<glyph name="i.ss01" format="1">
  <advance width="600"/>
  <outline>
    <contour>
      <point x="463" y="-11"/>
      <point x="503" y="-1"/>
      <point x="511" y="0" type="curve"/>
      <point x="511" y="98" type="line"/>
      <point x="502" y="96"/>
      <point x="452" y="84"/>
      <point x="417" y="84" type="curve"/>
      <point x="387" y="84"/>
      <point x="364" y="92"/>
      <point x="364" y="155" type="curve"/>
      <point x="245" y="122" type="line"/>
      <point x="245" y="15"/>
      <point x="317" y="-11"/>
      <point x="396" y="-11" type="curve"/>
    </contour>
    <contour>
      <point x="364" y="155" type="line"/>
      <point x="364" y="500" type="line"/>
      <point x="245" y="500" type="line"/>
      <point x="245" y="122" type="line"/>
    </contour>
    <contour>
      <point x="250" y="400" type="line"/>
      <point x="250" y="500" type="line"/>
      <point x="111" y="500" type="line"/>
      <point x="111" y="400" type="line"/>
    </contour>
    <contour>
      <point x="344" y="618"/>
      <point x="379" y="653"/>
      <point x="379" y="698" type="curve" smooth="yes"/>
      <point x="379" y="743"/>
      <point x="344" y="778"/>
      <point x="300" y="778" type="curve" smooth="yes"/>
      <point x="255" y="778"/>
      <point x="220" y="743"/>
      <point x="220" y="698" type="curve" smooth="yes"/>
      <point x="220" y="653"/>
      <point x="255" y="618"/>
      <point x="300" y="618" type="curve" smooth="yes"/>
    </contour>
  </outline>
</glyph>
<glyph name="l.ss01" format="1">
  <advance width="600"/>
  <outline>
    <contour>
      <point x="367" y="161" type="line"/>
      <point x="367" y="800" type="line"/>
      <point x="235" y="800" type="line"/>
      <point x="235" y="122" type="line"/>
    </contour>
    <contour>
      <point x="472" y="-11"/>
      <point x="526" y="0"/>
      <point x="530" y="0" type="curve"/>
      <point x="530" y="107" type="line"/>
      <point x="523" y="105"/>
      <point x="464" y="91"/>
      <point x="423" y="91" type="curve"/>
      <point x="396" y="91"/>
      <point x="367" y="99"/>
      <point x="367" y="161" type="curve"/>
      <point x="235" y="122" type="line"/>
      <point x="235" y="9"/>
      <point x="319" y="-11"/>
      <point x="401" y="-11" type="curve"/>
    </contour>
    <contour>
      <point x="240" y="693" type="line"/>
      <point x="240" y="800" type="line"/>
      <point x="88" y="800" type="line"/>
      <point x="88" y="693" type="line"/>
    </contour>
  </outline>
</glyph>
<glyph name="t.ss01" format="1">
  <advance width="600"/>
  <outline>
    <contour>
      <point x="358" y="0" type="line"/>
      <point x="358" y="680" type="line"/>
      <point x="239" y="680" type="line"/>
      <point x="239" y="0" type="line"/>
    </contour>
    <contour>
      <point x="476" y="0" type="line"/>
      <point x="476" y="100" type="line"/>
      <point x="294" y="100" type="line"/>
      <point x="294" y="0" type="line"/>
    </contour>
    <contour>
      <point x="516" y="400" type="line"/>
      <point x="516" y="500" type="line"/>
      <point x="113" y="500" type="line"/>
      <point x="113" y="400" type="line"/>
    </contour>
  </outline>
</glyph>
<glyph name="three.ss01" format="1">
  <advance width="600"/>
  <outline>
    <contour>
      <point x="449" y="-11"/>
      <point x="547" y="88"/>
      <point x="547" y="216" type="curve" smooth="yes"/>
      <point x="547" y="344"/>
      <point x="444" y="424"/>
      <point x="327" y="395" type="curve"/>
      <point x="265" y="311" type="line"/>
      <point x="361" y="341"/>
      <point x="422" y="288"/>
      <point x="422" y="216" type="curve" smooth="yes"/>
      <point x="422" y="145"/>
      <point x="378" y="97"/>
      <point x="305" y="97" type="curve" smooth="yes"/>
      <point x="236" y="97"/>
      <point x="191" y="129"/>
      <point x="166" y="180" type="curve"/>
      <point x="57" y="123" type="line"/>
      <point x="96" y="46"/>
      <point x="183" y="-11"/>
      <point x="308" y="-11" type="curve" smooth="yes"/>
    </contour>
    <contour>
      <point x="369" y="593" type="line"/>
      <point x="189" y="394" type="line"/>
      <point x="265" y="311" type="line"/>
      <point x="520" y="593" type="line"/>
    </contour>
    <contour>
      <point x="520" y="700" type="line"/>
      <point x="84" y="700" type="line"/>
      <point x="84" y="593" type="line"/>
      <point x="520" y="593" type="line"/>
    </contour>
  </outline>
</glyph>
<glyph name="x.ss01" format="1">
  <advance width="600"/>
  <outline>
    <contour>
      <point x="247" y="265" type="line"/>
      <point x="43" y="0" type="line"/>
      <point x="182" y="0" type="line"/>
      <point x="350" y="237" type="line"/>
    </contour>
    <contour>
      <point x="350" y="237" type="line"/>
      <point x="558" y="500" type="line"/>
      <point x="424" y="500" type="line"/>
      <point x="247" y="265" type="line"/>
    </contour>
    <contour>
      <point x="417" y="0" type="line"/>
      <point x="555" y="0" type="line"/>
      <point x="351" y="265" type="line"/>
      <point x="248" y="237" type="line"/>
    </contour>
    <contour>
      <point x="182" y="500" type="line"/>
      <point x="43" y="500" type="line"/>
      <point x="248" y="237" type="line"/>
      <point x="351" y="265" type="line"/>
    </contour>
  </outline>
</glyph>
